<svg width="51" height="40" viewBox="0 0 51 40" fill="none" xmlns="http://www.w3.org/2000/svg">
<path d="M44.5438 13.2558H41.595V11.7348C41.595 10.5242 40.6017 9.53091 39.3911 9.53091C38.1805 9.53091 37.1872 10.5242 37.1872 11.7348V13.2558H34.2383V11.7348C34.2383 8.87905 36.5663 6.58203 39.3911 6.58203C42.2468 6.58203 44.5438 8.91009 44.5438 11.7348V13.2558Z" fill="#FFA400"/>
<path d="M45.7552 13.2539H33.0285C32.4697 13.2539 32.0352 13.6885 32.0352 14.2472V23.6526C32.0352 24.2113 32.4697 24.6459 33.0285 24.6459H45.7552C46.3139 24.6459 46.7485 24.2113 46.7485 23.6526V14.2472C46.7175 13.6885 46.2829 13.2539 45.7552 13.2539ZM40.0126 19.431V20.7037C40.0126 21.0452 39.7333 21.3556 39.3608 21.3556C39.0193 21.3556 38.7089 21.0762 38.7089 20.7037V19.431C38.3054 19.2137 38.0571 18.7792 38.0571 18.2825C38.0571 17.5686 38.6469 16.9788 39.3608 16.9788C40.0747 16.9788 40.6645 17.5686 40.6645 18.2825C40.6955 18.7792 40.4162 19.2137 40.0126 19.431Z" fill="#003A70"/>
<path d="M31.7232 11.857H28.6502C28.1535 11.857 27.75 11.4535 27.75 10.9568C27.75 10.4602 28.1535 10.0566 28.6502 10.0566H31.7232C32.2199 10.0566 32.6234 10.4602 32.6234 10.9568C32.6234 11.4535 32.2199 11.857 31.7232 11.857Z" fill="#FFA400"/>
<path d="M33.8966 7.01628C33.7103 7.01628 33.4931 6.9542 33.3378 6.79899L30.9167 4.81238C30.5442 4.50197 30.4821 3.94324 30.7925 3.53971C31.1029 3.16722 31.6616 3.10514 32.0652 3.41554L34.4864 5.40216C34.8588 5.71256 34.9209 6.2713 34.6105 6.67483C34.3932 6.89212 34.1449 7.01628 33.8966 7.01628Z" fill="#FFA400"/>
<path d="M39.3904 4.90445C38.8938 4.90445 38.4902 4.50092 38.4902 4.00427V0.900184C38.4902 0.403531 38.8938 0 39.3904 0C39.8871 0 40.2906 0.403531 40.2906 0.900184V4.00427C40.2906 4.50092 39.8871 4.90445 39.3904 4.90445Z" fill="#FFA400"/>
<path d="M44.8543 7.01628C44.606 7.01628 44.3266 6.89212 44.1714 6.67483C43.861 6.30234 43.9231 5.71256 44.2956 5.40216L46.7167 3.41554C47.0892 3.10514 47.679 3.16722 47.9894 3.53971C48.2998 3.9122 48.2378 4.50197 47.8653 4.81238L45.4441 6.79899C45.2578 6.9542 45.0716 7.01628 44.8543 7.01628Z" fill="#FFA400"/>
<path d="M50.1 11.857H46.9959C46.4992 11.857 46.0957 11.4535 46.0957 10.9568C46.0957 10.4602 46.4992 10.0566 46.9959 10.0566H50.1C50.5966 10.0566 51.0002 10.4602 51.0002 10.9568C51.0002 11.4535 50.5966 11.857 50.1 11.857Z" fill="#FFA400"/>
<path d="M0 24.5223V14.4961H2.42118V22.4115H6.30129V24.5223H0Z" fill="#003A70"/>
<path d="M14.3098 21.0758C14.3098 21.169 14.3098 21.2621 14.3098 21.3552C14.3098 21.4483 14.3098 21.5414 14.3098 21.6346H9.18806C9.21911 21.8208 9.28119 22.0071 9.37431 22.1623C9.46743 22.3175 9.59159 22.4727 9.7468 22.5658C9.902 22.69 10.0882 22.7831 10.2745 22.8452C10.4607 22.9072 10.678 22.9383 10.8643 22.9383C11.2368 22.9383 11.5472 22.8762 11.7955 22.721C12.0438 22.5968 12.2611 22.4106 12.4163 22.1933L14.0304 23.2176C13.689 23.7143 13.2544 24.0558 12.7267 24.3351C12.199 24.5834 11.5472 24.7386 10.8332 24.7386C10.3055 24.7386 9.80888 24.6455 9.34327 24.4903C8.87766 24.3351 8.47413 24.0868 8.10164 23.7764C7.76019 23.466 7.48082 23.0624 7.26353 22.5968C7.04625 22.1312 6.95312 21.6035 6.95312 21.0138C6.95312 20.424 7.04625 19.9273 7.26353 19.4617C7.44978 18.9961 7.72915 18.5926 8.0706 18.2822C8.41204 17.9717 8.81557 17.6924 9.28119 17.5372C9.7468 17.3509 10.2435 17.2578 10.7711 17.2578C11.2988 17.2578 11.7645 17.3509 12.199 17.5061C12.6336 17.6924 13.0061 17.9407 13.3165 18.2511C13.6269 18.5926 13.8752 18.9961 14.0304 19.4617C14.2167 19.9584 14.3098 20.4861 14.3098 21.0758ZM12.168 20.2067C12.168 19.8342 12.0438 19.5238 11.8265 19.2444C11.6092 18.9651 11.2368 18.8409 10.7711 18.8409C10.5539 18.8409 10.3366 18.8719 10.1503 18.934C9.96408 18.9961 9.80888 19.0892 9.65368 19.2134C9.49847 19.3375 9.40535 19.4928 9.31223 19.648C9.21911 19.8032 9.18806 19.9894 9.15702 20.1756H12.168V20.2067Z" fill="#003A70"/>
<path d="M18.0356 19.214V21.9146C18.0356 22.256 18.0977 22.5043 18.2218 22.6595C18.346 22.8148 18.5633 22.9079 18.9047 22.9079C19.0289 22.9079 19.1531 22.9079 19.2772 22.8768C19.4014 22.8458 19.5255 22.8148 19.5876 22.7837L19.6187 24.491C19.4635 24.553 19.2462 24.5841 18.9978 24.6462C18.7495 24.6772 18.5012 24.7082 18.2529 24.7082C17.7873 24.7082 17.3837 24.6462 17.0733 24.522C16.7629 24.3978 16.4835 24.2426 16.2973 24.0253C16.1111 23.8081 15.9558 23.5287 15.8938 23.2183C15.8317 22.9079 15.7696 22.5664 15.7696 22.1939V19.214H14.6211V17.4757H15.7386V15.6133H18.0356V17.4757H19.6807V19.214H18.0356Z" fill="#003A70"/>
<path d="M27.1918 19.555C27.0055 19.3688 26.7882 19.2136 26.5399 19.0894C26.2916 18.9653 26.0122 18.9032 25.7328 18.9032C25.5156 18.9032 25.3293 18.9342 25.1431 19.0273C24.9568 19.1205 24.8637 19.2446 24.8637 19.4619C24.8637 19.6482 24.9568 19.8034 25.1741 19.8965C25.3914 19.9896 25.7018 20.0827 26.1674 20.1759C26.4468 20.2379 26.6951 20.3 26.9745 20.4242C27.2538 20.5483 27.4711 20.6725 27.6884 20.8277C27.9057 20.9829 28.092 21.2002 28.2161 21.4485C28.3403 21.6969 28.4024 21.9762 28.4024 22.3177C28.4024 22.7522 28.3092 23.1247 28.123 23.4351C27.9367 23.7456 27.7195 23.9939 27.4091 24.1801C27.1297 24.3664 26.7882 24.4905 26.4468 24.5837C26.0743 24.6768 25.7328 24.7078 25.3604 24.7078C24.7706 24.7078 24.2118 24.6147 23.6842 24.4285C23.1254 24.2422 22.6598 23.9628 22.3184 23.6214L23.6221 22.2556C23.8394 22.4729 24.0877 22.6591 24.3981 22.8143C24.7085 22.9695 25.0189 23.0316 25.3604 23.0316C25.5466 23.0316 25.7328 23.0006 25.9191 22.9075C26.1053 22.8143 26.1985 22.6591 26.1985 22.4418C26.1985 22.2246 26.0743 22.0693 25.857 21.9452C25.6397 21.8521 25.2672 21.7279 24.8016 21.6348C24.5533 21.5727 24.305 21.5106 24.0566 21.4175C23.8083 21.3244 23.591 21.2002 23.4048 21.045C23.2185 20.8898 23.0633 20.6725 22.9392 20.4552C22.815 20.2069 22.7529 19.9275 22.7529 19.6171C22.7529 19.1826 22.8461 18.8411 23.0323 18.5307C23.2185 18.2203 23.4358 18.003 23.7152 17.8168C23.9946 17.6305 24.305 17.4753 24.6464 17.4132C24.9879 17.3201 25.3293 17.2891 25.6708 17.2891C26.1985 17.2891 26.7262 17.3822 27.2228 17.5374C27.7195 17.6926 28.154 17.9409 28.4955 18.2824L27.1918 19.555Z" fill="#003A70"/>
<path d="M0 36.1317V26.1055H6.73586V28.1542H2.32806V30.0477H6.48753V31.9722H2.32806V34.0519H6.98419V36.1317H0Z" fill="#003A70"/>
<path d="M13.0993 36.1312V32.2821C13.0993 32.0958 13.0682 31.9096 13.0372 31.7234C13.0062 31.5371 12.9441 31.3819 12.882 31.2577C12.8199 31.1336 12.6957 31.0094 12.5716 30.9473C12.4474 30.8542 12.2612 30.8232 12.0439 30.8232C11.8266 30.8232 11.6404 30.8542 11.4852 30.9473C11.3299 31.0405 11.2058 31.1336 11.0816 31.2888C10.9885 31.444 10.8954 31.5992 10.8333 31.7854C10.7712 31.9717 10.7402 32.1579 10.7402 32.3442V36.1622H8.41211V29.1159H10.647V30.0782H10.6781C10.7712 29.923 10.8643 29.7678 11.0195 29.6436C11.1437 29.4884 11.3299 29.3643 11.4852 29.2711C11.6714 29.178 11.8576 29.0849 12.0749 29.0228C12.2922 28.9607 12.5095 28.9297 12.7578 28.9297C13.2234 28.9297 13.627 29.0228 13.9684 29.178C14.3099 29.3332 14.5582 29.5815 14.7755 29.8299C14.9928 30.1092 15.1169 30.4196 15.21 30.7611C15.3032 31.1025 15.3342 31.444 15.3342 31.8165V36.1622H13.0993V36.1312Z" fill="#003A70"/>
<path d="M21.4184 31.3505C21.2942 31.1952 21.108 31.04 20.8907 30.9469C20.6734 30.8538 20.4251 30.7917 20.2078 30.7917C19.9595 30.7917 19.7422 30.8538 19.556 30.9469C19.3697 31.04 19.1835 31.1642 19.0593 31.3505C18.9351 31.5367 18.811 31.6919 18.7178 31.9092C18.6247 32.1265 18.5937 32.3438 18.5937 32.5921C18.5937 32.8404 18.6247 33.0577 18.7178 33.275C18.7799 33.4923 18.9041 33.6785 19.0593 33.8337C19.2145 33.9889 19.3697 34.1441 19.587 34.2372C19.8043 34.3304 20.0216 34.3925 20.2699 34.3925C20.5182 34.3925 20.7355 34.3614 20.9838 34.2683C21.2011 34.1752 21.3874 34.051 21.5426 33.8648L22.8152 35.4478C22.5359 35.7272 22.1323 35.9445 21.6978 36.0997C21.2322 36.2549 20.7355 36.348 20.2388 36.348C19.6801 36.348 19.1524 36.2549 18.6868 36.0997C18.1902 35.9445 17.7866 35.6962 17.4141 35.3547C17.0727 35.0443 16.7933 34.6408 16.576 34.1752C16.3587 33.7096 16.2656 33.1819 16.2656 32.5921C16.2656 32.0023 16.3587 31.5057 16.576 31.04C16.7933 30.5744 17.0727 30.1709 17.4141 29.8605C17.7556 29.5501 18.1902 29.2707 18.6868 29.1155C19.1835 28.9293 19.6801 28.8672 20.2388 28.8672C20.4872 28.8672 20.7355 28.8982 20.9838 28.9293C21.2322 28.9914 21.4805 29.0534 21.6978 29.1155C21.9151 29.2086 22.1323 29.3018 22.3496 29.4259C22.5359 29.5501 22.7221 29.6743 22.8463 29.8295L21.4184 31.3505Z" fill="#003A70"/>
<path d="M28.186 31.0092C28.0929 30.9782 27.9688 30.9471 27.8756 30.9471C27.7825 30.9471 27.6894 30.9471 27.5963 30.9471C27.2859 30.9471 27.0375 31.0092 26.8203 31.1023C26.603 31.2265 26.4478 31.3507 26.3236 31.5059C26.1994 31.6611 26.1063 31.8473 26.0442 32.0336C25.9822 32.2198 25.9511 32.375 25.9511 32.5302V36.1309H23.623V29.0847H25.858V30.109H25.889C26.0753 29.7365 26.3236 29.4572 26.665 29.2399C27.0065 29.0226 27.379 28.8984 27.8136 28.8984C27.9067 28.8984 27.9998 28.8984 28.0929 28.8984C28.186 28.8984 28.2481 28.9295 28.3102 28.9295L28.186 31.0092Z" fill="#003A70"/>
<path d="M33.6486 37.1876C33.4934 37.5601 33.3382 37.8705 33.183 38.1809C32.9967 38.4603 32.8105 38.7086 32.5622 38.9259C32.3138 39.1432 32.0345 39.2673 31.7241 39.3915C31.4137 39.4846 31.0101 39.5467 30.5755 39.5467C30.3583 39.5467 30.141 39.5467 29.8927 39.5157C29.6754 39.4846 29.4581 39.4536 29.3029 39.3915L29.5512 37.4359C29.6754 37.467 29.7995 37.498 29.9237 37.529C30.0479 37.5601 30.172 37.5601 30.2962 37.5601C30.6687 37.5601 30.917 37.467 31.0722 37.3118C31.2274 37.1565 31.3826 36.9082 31.4757 36.5978L31.693 36.008L28.7441 29.0859H31.3205L32.9036 33.6179H32.9347L34.3315 29.0859H36.7837L33.6486 37.1876Z" fill="#003A70"/>
<path d="M45.2576 32.591C45.2576 33.0876 45.1955 33.5532 45.0403 34.0188C44.8851 34.4845 44.6678 34.8569 44.3885 35.2294C44.1091 35.5709 43.7366 35.8503 43.3331 36.0675C42.9296 36.2848 42.4329 36.3779 41.9052 36.3779C41.4706 36.3779 41.0671 36.2848 40.6636 36.1296C40.2911 35.9434 39.9807 35.7261 39.7634 35.4157H39.7324V39.6062H37.4043V29.1765H39.6082V30.0456H39.6392C39.8565 29.7663 40.1669 29.5179 40.5394 29.3006C40.9119 29.0834 41.3775 28.9902 41.9052 28.9902C42.4019 28.9902 42.8675 29.0834 43.3021 29.3006C43.7056 29.4869 44.0781 29.7663 44.3574 30.1077C44.6368 30.4492 44.8541 30.8527 45.0093 31.2873C45.1645 31.6287 45.2576 32.0943 45.2576 32.591ZM42.9916 32.591C42.9916 32.3737 42.9606 32.1564 42.8985 31.9391C42.8364 31.7218 42.7123 31.5356 42.5881 31.3804C42.464 31.2252 42.2777 31.07 42.0604 30.9768C41.8431 30.8837 41.6259 30.8216 41.3465 30.8216C41.0671 30.8216 40.8498 30.8837 40.6325 30.9768C40.4153 31.07 40.2601 31.2252 40.1049 31.3804C39.9496 31.5356 39.8565 31.7529 39.7634 31.9702C39.6703 32.1874 39.6392 32.4047 39.6392 32.622C39.6392 32.8393 39.6703 33.0566 39.7634 33.2739C39.8565 33.4912 39.9496 33.6774 40.1049 33.8636C40.2601 34.0188 40.4153 34.1741 40.6325 34.2672C40.8498 34.3603 41.0671 34.4224 41.3465 34.4224C41.6259 34.4224 41.8742 34.3603 42.0604 34.2672C42.2777 34.1741 42.4329 34.0188 42.5881 33.8636C42.7123 33.7084 42.8364 33.4912 42.8985 33.2739C42.9606 33.0255 42.9916 32.8083 42.9916 32.591Z" fill="#003A70"/>
<path d="M48.9518 30.8234V33.5239C48.9518 33.8654 49.0139 34.1137 49.1381 34.2689C49.2622 34.4241 49.4795 34.5172 49.821 34.5172C49.9451 34.5172 50.0693 34.5172 50.1934 34.4862C50.3176 34.4552 50.4418 34.4241 50.5039 34.3931L50.5349 36.1003C50.3797 36.1624 50.1624 36.1935 49.9141 36.2555C49.6657 36.2866 49.4174 36.3176 49.1691 36.3176C48.7035 36.3176 48.3 36.2555 47.9895 36.1314C47.6791 36.0072 47.3998 35.852 47.2135 35.6347C47.0273 35.4174 46.8721 35.1381 46.81 34.8277C46.7479 34.5172 46.6858 34.1758 46.6858 33.8033V30.8234H45.5684V29.0851H46.6858V27.2227H48.9518V29.0851H50.597V30.8234H48.9518Z" fill="#003A70"/>
<path d="M21.8217 14.3086C21.1388 14.3086 20.5801 14.8052 20.5801 15.4571C20.5801 16.14 21.0457 16.5746 21.7286 16.5746C21.7907 16.5746 21.8528 16.5746 21.8838 16.5435C21.7596 17.0402 21.294 17.4127 20.8284 17.4748H20.7353V18.5612H20.8594C21.4182 18.4991 21.9459 18.2508 22.3494 17.8783C22.8771 17.3816 23.1565 16.6367 23.1565 15.7675C23.1565 14.9294 22.5977 14.3086 21.8217 14.3086Z" fill="#003A70"/>
</svg>
