<svg width="54" height="54" viewBox="0 0 54 54" fill="none" xmlns="http://www.w3.org/2000/svg">
<circle cx="27" cy="27" r="27" fill="#7F57F1"/>
<path d="M11 17V19H30V34H23.844C23.398 32.281 21.852 31 20 31C18.148 31 16.602 32.281 16.156 34H15V29H13V36H16.156C16.602 37.719 18.148 39 20 39C21.852 39 23.398 37.719 23.844 36H32.156C32.602 37.719 34.148 39 36 39C37.852 39 39.398 37.719 39.844 36H43V27.844L42.937 27.687L40.937 21.687L40.72 21H32V17H11ZM12 21V23H21V21H12ZM32 23H39.281L41 28.125V34H39.844C39.398 32.281 37.852 31 36 31C34.148 31 32.602 32.281 32.156 34H32V23ZM13 25V27H19V25H13ZM20 33C21.117 33 22 33.883 22 35C22 36.117 21.117 37 20 37C18.883 37 18 36.117 18 35C18 33.883 18.883 33 20 33ZM36 33C37.117 33 38 33.883 38 35C38 36.117 37.117 37 36 37C34.883 37 34 36.117 34 35C34 33.883 34.883 33 36 33Z" fill="white"/>
</svg>
