<svg width="119" height="41" viewBox="0 0 119 41" fill="none" xmlns="http://www.w3.org/2000/svg">
<g clip-path="url(#clip0_77_1027)">
<path fill-rule="evenodd" clip-rule="evenodd" d="M8.39773 3.89144C7.00946 4.8918 5.75409 6.07455 4.66431 7.40597C9.11764 6.9799 14.7754 7.67562 21.3441 11.0603C28.3585 14.6745 34.0068 14.7967 37.9378 14.0153C37.5811 12.9024 37.132 11.8328 36.6002 10.816C32.1003 11.3051 26.3314 10.6577 19.6083 7.19355C15.339 4.99375 11.5757 4.08758 8.39773 3.89144ZM33.9715 6.96022C30.4179 2.86857 25.2537 0.293579 19.5058 0.293579C17.8178 0.293579 16.18 0.515686 14.6187 0.933059C16.7334 1.52766 18.9798 2.39756 21.3441 3.61584C26.2664 6.1521 30.516 6.96873 33.9715 6.96022ZM38.7783 17.9217C34.0293 18.8881 27.4714 18.6896 19.6083 14.638C12.2571 10.8502 6.40624 10.8979 2.46019 11.8016C2.25651 11.8482 2.05762 11.8972 1.86354 11.9482C1.3469 13.1061 0.934509 14.3237 0.638612 15.5881C0.954646 15.5011 1.28122 15.4184 1.61816 15.3412C6.4054 14.2449 13.1694 14.2925 21.3441 18.5047C28.6953 22.2925 34.5462 22.2448 38.4923 21.3411C38.6275 21.3102 38.7607 21.2782 38.8917 21.2452C38.9061 20.9299 38.9132 20.6126 38.9132 20.2936C38.9132 19.4911 38.8674 18.6996 38.7783 17.9217ZM38.258 25.4659C33.5551 26.3132 27.1882 25.988 19.6083 22.0824C12.2571 18.2946 6.40624 18.3423 2.46019 19.246C1.58429 19.4465 0.796333 19.6908 0.101247 19.9487C0.099352 20.0634 0.0984039 20.1784 0.0984039 20.2936C0.0984039 31.3393 8.7874 40.2936 19.5058 40.2936C28.4886 40.2936 36.0461 34.0045 38.258 25.4659Z" fill="#7F57F1"/>
<path d="M57.0126 25.5469H53.9018C53.845 25.1444 53.729 24.7869 53.5538 24.4744C53.3786 24.1572 53.1537 23.8873 52.879 23.6648C52.6044 23.4422 52.2872 23.2718 51.9273 23.1534C51.5722 23.035 51.1863 22.9759 50.7697 22.9759C50.0168 22.9759 49.3611 23.1629 48.8023 23.5369C48.2436 23.9062 47.8104 24.446 47.5026 25.1562C47.1949 25.8617 47.041 26.7187 47.041 27.7273C47.041 28.7642 47.1949 29.6354 47.5026 30.3409C47.8151 31.0464 48.2507 31.5791 48.8094 31.9389C49.3682 32.2988 50.0145 32.4787 50.7484 32.4787C51.1603 32.4787 51.5415 32.4242 51.8918 32.3153C52.2469 32.2064 52.5618 32.0478 52.8364 31.8395C53.1111 31.6264 53.3383 31.3684 53.5183 31.0653C53.7029 30.7623 53.8308 30.4167 53.9018 30.0284L57.0126 30.0426C56.9321 30.7102 56.7308 31.3542 56.4089 31.9744C56.0916 32.59 55.6631 33.1416 55.1234 33.6293C54.5883 34.1122 53.9491 34.4957 53.2058 34.7798C52.4671 35.0592 51.6314 35.1989 50.6986 35.1989C49.4013 35.1989 48.2413 34.9053 47.2185 34.3182C46.2005 33.7311 45.3956 32.8812 44.8038 31.7685C44.2166 30.6558 43.9231 29.3087 43.9231 27.7273C43.9231 26.1411 44.2214 24.7917 44.818 23.679C45.4146 22.5663 46.2242 21.7187 47.2469 21.1364C48.2697 20.5492 49.4202 20.2557 50.6986 20.2557C51.5415 20.2557 52.3227 20.3741 53.0424 20.6108C53.7668 20.8475 54.4084 21.1932 54.9671 21.6477C55.5258 22.0975 55.9804 22.6491 56.3308 23.3026C56.6859 23.956 56.9131 24.7041 57.0126 25.5469ZM64.1326 35.2131C63.0104 35.2131 62.0445 34.9858 61.2349 34.5312C60.4299 34.072 59.8097 33.4233 59.3741 32.5852C58.9385 31.7424 58.7207 30.7457 58.7207 29.5952C58.7207 28.473 58.9385 27.4882 59.3741 26.6406C59.8097 25.7931 60.4228 25.1326 61.2136 24.6591C62.009 24.1856 62.9418 23.9489 64.0119 23.9489C64.7316 23.9489 65.4015 24.0649 66.0218 24.2969C66.6468 24.5241 67.1913 24.8674 67.6553 25.3267C68.1241 25.786 68.4887 26.3636 68.7491 27.0597C69.0095 27.7509 69.1397 28.5606 69.1397 29.4886V30.3196H59.9281V28.4446H66.2917C66.2917 28.009 66.197 27.6231 66.0076 27.2869C65.8182 26.9508 65.5554 26.688 65.2192 26.4986C64.8878 26.3045 64.5019 26.2074 64.0616 26.2074C63.6023 26.2074 63.1951 26.3139 62.84 26.527C62.4896 26.7353 62.215 27.017 62.0161 27.3722C61.8173 27.7225 61.7155 28.1132 61.7107 28.544V30.3267C61.7107 30.8665 61.8102 31.3329 62.009 31.7259C62.2126 32.1188 62.4991 32.4219 62.8684 32.6349C63.2377 32.848 63.6757 32.9545 64.1823 32.9545C64.5185 32.9545 64.8263 32.9072 65.1056 32.8125C65.385 32.7178 65.6241 32.5758 65.8229 32.3864C66.0218 32.197 66.1733 31.965 66.2775 31.6903L69.0758 31.875C68.9337 32.5473 68.6425 33.1345 68.2022 33.6364C67.7666 34.1335 67.2031 34.5218 66.5119 34.8011C65.8253 35.0758 65.0322 35.2131 64.1326 35.2131ZM74.1397 20.4545V35H71.1141V20.4545H74.1397ZM83.5591 30.3551V24.0909H86.5847V35H83.6798V33.0185H83.5662C83.32 33.6577 82.9104 34.1714 82.3375 34.5597C81.7693 34.9479 81.0757 35.142 80.2565 35.142C79.5274 35.142 78.8858 34.9763 78.3318 34.6449C77.7778 34.3134 77.3446 33.8423 77.0321 33.2315C76.7243 32.6207 76.5681 31.8892 76.5634 31.0369V24.0909H79.5889V30.4972C79.5937 31.1411 79.7665 31.6501 80.1074 32.0241C80.4483 32.3982 80.9052 32.5852 81.4781 32.5852C81.8427 32.5852 82.1836 32.5024 82.5009 32.3366C82.8181 32.1662 83.0738 31.9152 83.2679 31.5838C83.4668 31.2524 83.5638 30.8428 83.5591 30.3551ZM92.0303 20.4545V35H89.0048V20.4545H92.0303ZM99.383 35.2131C98.2797 35.2131 97.3257 34.9787 96.5207 34.5099C95.7205 34.0365 95.1027 33.3783 94.667 32.5355C94.2314 31.688 94.0136 30.7055 94.0136 29.5881C94.0136 28.4612 94.2314 27.4763 94.667 26.6335C95.1027 25.786 95.7205 25.1278 96.5207 24.6591C97.3257 24.1856 98.2797 23.9489 99.383 23.9489C100.486 23.9489 101.438 24.1856 102.238 24.6591C103.043 25.1278 103.663 25.786 104.099 26.6335C104.534 27.4763 104.752 28.4612 104.752 29.5881C104.752 30.7055 104.534 31.688 104.099 32.5355C103.663 33.3783 103.043 34.0365 102.238 34.5099C101.438 34.9787 100.486 35.2131 99.383 35.2131ZM99.3972 32.8693C99.8991 32.8693 100.318 32.7273 100.654 32.4432C100.99 32.1544 101.244 31.7614 101.414 31.2642C101.589 30.767 101.677 30.2012 101.677 29.5668C101.677 28.9323 101.589 28.3665 101.414 27.8693C101.244 27.3722 100.99 26.9792 100.654 26.6903C100.318 26.4015 99.8991 26.2571 99.3972 26.2571C98.8905 26.2571 98.4644 26.4015 98.1187 26.6903C97.7778 26.9792 97.5198 27.3722 97.3446 27.8693C97.1741 28.3665 97.0889 28.9323 97.0889 29.5668C97.0889 30.2012 97.1741 30.767 97.3446 31.2642C97.5198 31.7614 97.7778 32.1544 98.1187 32.4432C98.4644 32.7273 98.8905 32.8693 99.3972 32.8693ZM113.715 30.3551V24.0909H116.741V35H113.836V33.0185H113.722C113.476 33.6577 113.067 34.1714 112.494 34.5597C111.926 34.9479 111.232 35.142 110.413 35.142C109.684 35.142 109.042 34.9763 108.488 34.6449C107.934 34.3134 107.501 33.8423 107.188 33.2315C106.881 32.6207 106.724 31.8892 106.72 31.0369V24.0909H109.745V30.4972C109.75 31.1411 109.923 31.6501 110.264 32.0241C110.605 32.3982 111.061 32.5852 111.634 32.5852C111.999 32.5852 112.34 32.5024 112.657 32.3366C112.974 32.1662 113.23 31.9152 113.424 31.5838C113.623 31.2524 113.72 30.8428 113.715 30.3551Z" fill="#7F57F1"/>
</g>
<defs>
<clipPath id="clip0_77_1027">
<rect width="119" height="41" fill="white"/>
</clipPath>
</defs>
</svg>
