<svg width="284" height="68" viewBox="0 0 284 68" fill="none" xmlns="http://www.w3.org/2000/svg">
<rect x="0.5" width="50" height="30" rx="2" fill="white"/>
<rect x="0.5" width="50" height="30" rx="2" fill="#F0EFEB"/>
<path d="M29.5 19H21.5V5H29.5V19Z" fill="#FF5F00"/>
<path d="M22.7231 12C22.7231 9.12932 24.2 6.57219 26.5 4.92428C24.8181 3.71924 22.6954 3 20.3885 3C14.9271 3 10.5 7.02937 10.5 12C10.5 16.9706 14.9271 21 20.3885 21C22.6954 21 24.8181 20.2808 26.5 19.0757C24.2 17.4278 22.7231 14.8707 22.7231 12Z" fill="#EB001B"/>
<path d="M41.5 12C41.5 16.9706 37.0731 21 31.6119 21C29.3051 21 27.1825 20.2808 25.5 19.0757C27.8005 17.4278 29.2774 14.8707 29.2774 12C29.2774 9.12932 27.8005 6.57219 25.5 4.92428C27.1825 3.71924 29.3051 3 31.6119 3C37.0731 3 41.5 7.02937 41.5 12Z" fill="#F79E1B"/>
<path d="M16.6106 25.5277C16.6106 25.0349 16.9046 24.6301 17.3851 24.6301C17.8441 24.6301 18.154 25.0175 18.154 25.5277C18.154 26.0379 17.8441 26.4253 17.3851 26.4253C16.9046 26.4253 16.6106 26.0205 16.6106 25.5277ZM18.6773 25.5277V24.1259H18.1222V24.4663C17.9462 24.2138 17.6791 24.0554 17.316 24.0554C16.6002 24.0554 16.0391 24.6717 16.0391 25.5277C16.0391 26.3844 16.6002 27 17.316 27C17.6791 27 17.9462 26.8416 18.1222 26.5891V26.9295H18.6773V25.5277ZM37.4328 25.5277C37.4328 25.0349 37.7268 24.6301 38.2072 24.6301C38.6669 24.6301 38.9762 25.0175 38.9762 25.5277C38.9762 26.0379 38.6669 26.4253 38.2072 26.4253C37.7268 26.4253 37.4328 26.0205 37.4328 25.5277ZM39.5 25.5277V23H38.9444V24.4663C38.7683 24.2138 38.5012 24.0554 38.1381 24.0554C37.4224 24.0554 36.8612 24.6717 36.8612 25.5277C36.8612 26.3844 37.4224 27 38.1381 27C38.5012 27 38.7683 26.8416 38.9444 26.5891V26.9295H39.5V25.5277ZM25.5666 24.6012C25.9242 24.6012 26.154 24.8476 26.2127 25.2813H24.8881C24.9474 24.8765 25.1711 24.6012 25.5666 24.6012ZM25.5776 24.0554C24.8295 24.0554 24.3062 24.6536 24.3062 25.5277C24.3062 26.4193 24.8509 27 25.6149 27C25.9994 27 26.3515 26.8946 26.6614 26.6073L26.3894 26.1554C26.1754 26.3427 25.9028 26.4488 25.6467 26.4488C25.2891 26.4488 24.9633 26.2669 24.8833 25.762H26.7787C26.7842 25.6861 26.7897 25.6096 26.7897 25.5277C26.7842 24.6536 26.2928 24.0554 25.5776 24.0554ZM32.2793 25.5277C32.2793 25.0349 32.5734 24.6301 33.0538 24.6301C33.5128 24.6301 33.8227 25.0175 33.8227 25.5277C33.8227 26.0379 33.5128 26.4253 33.0538 26.4253C32.5734 26.4253 32.2793 26.0205 32.2793 25.5277ZM34.346 25.5277V24.1259H33.791V24.4663C33.6143 24.2138 33.3478 24.0554 32.9847 24.0554C32.2689 24.0554 31.7078 24.6717 31.7078 25.5277C31.7078 26.3844 32.2689 27 32.9847 27C33.3478 27 33.6143 26.8416 33.791 26.5891V26.9295H34.346V25.5277ZM29.1449 25.5277C29.1449 26.3783 29.684 27 30.5067 27C30.8912 27 31.1473 26.906 31.4248 26.6657L31.1583 26.1729C30.9499 26.3374 30.7311 26.4253 30.4902 26.4253C30.0471 26.4193 29.7213 26.0675 29.7213 25.5277C29.7213 24.9879 30.0471 24.6361 30.4902 24.6301C30.7311 24.6301 30.9499 24.718 31.1583 24.8825L31.4248 24.3897C31.1473 24.1494 30.8912 24.0554 30.5067 24.0554C29.684 24.0554 29.1449 24.6771 29.1449 25.5277ZM36.3007 24.0554C35.9804 24.0554 35.772 24.2199 35.6278 24.4663V24.1259H35.0776V26.9295H35.6333V25.3578C35.6333 24.8939 35.8148 24.6361 36.1779 24.6361C36.2903 24.6361 36.4077 24.6536 36.5251 24.7066L36.6962 24.1319C36.5734 24.0789 36.4132 24.0554 36.3007 24.0554ZM21.4224 24.3488C21.1553 24.1554 20.7873 24.0554 20.3814 24.0554C19.7347 24.0554 19.3185 24.3958 19.3185 24.953C19.3185 25.4102 19.6284 25.6922 20.1993 25.7801L20.4615 25.8211C20.7659 25.8681 20.9095 25.956 20.9095 26.1145C20.9095 26.3313 20.7066 26.4549 20.3276 26.4549C19.9432 26.4549 19.6656 26.3199 19.4786 26.1615L19.217 26.6361C19.5214 26.8825 19.9059 27 20.3221 27C21.0593 27 21.4866 26.6187 21.4866 26.0849C21.4866 25.5921 21.1504 25.3343 20.5947 25.2464L20.3331 25.2048C20.0929 25.1699 19.9004 25.1175 19.9004 24.9295C19.9004 24.7241 20.0819 24.6012 20.3863 24.6012C20.7121 24.6012 21.0275 24.7362 21.1822 24.8416L21.4224 24.3488ZM28.5837 24.0554C28.2634 24.0554 28.055 24.2199 27.9114 24.4663V24.1259H27.3612V26.9295H27.9163V25.3578C27.9163 24.8939 28.0978 24.6361 28.4609 24.6361C28.5733 24.6361 28.6907 24.6536 28.8081 24.7066L28.9792 24.1319C28.8564 24.0789 28.6962 24.0554 28.5837 24.0554ZM23.8472 24.1259H22.9395V23.2753H22.3784V24.1259H21.8606V24.6831H22.3784V25.9621C22.3784 26.6126 22.6082 27 23.2647 27C23.5055 27 23.783 26.9181 23.959 26.7831L23.7989 26.2608C23.6333 26.3662 23.4517 26.4193 23.3075 26.4193C23.03 26.4193 22.9395 26.2313 22.9395 25.95V24.6831H23.8472V24.1259ZM15.5483 26.9295V25.1699C15.5483 24.5072 15.1638 24.0614 14.544 24.0554C14.2182 24.0493 13.882 24.1608 13.6467 24.5542C13.4707 24.2434 13.1932 24.0554 12.8032 24.0554C12.5306 24.0554 12.2641 24.1433 12.0556 24.4716V24.1259H11.5V26.9295H12.0605V25.3753C12.0605 24.8886 12.3062 24.6301 12.6858 24.6301C13.0544 24.6301 13.2408 24.8939 13.2408 25.3693V26.9295H13.802V25.3753C13.802 24.8886 14.0581 24.6301 14.4266 24.6301C14.8056 24.6301 14.9872 24.8939 14.9872 25.3693V26.9295H15.5483Z" fill="black"/>
<g clip-path="url(#clip0_285_1813)">
<path fill-rule="evenodd" clip-rule="evenodd" d="M108.5 28.4C108.5 29.28 107.76 30 106.833 30H60.1667C59.25 30 58.5 29.29 58.5 28.4V1.6C58.5 0.72 59.2396 0 60.1667 0H106.833C107.75 0 108.5 0.71 108.5 1.6V28.4Z" fill="#00579F"/>
<path fill-rule="evenodd" clip-rule="evenodd" d="M81.5759 21H78.5L80.4241 9H83.5L81.5759 21Z" fill="white"/>
<path fill-rule="evenodd" clip-rule="evenodd" d="M75.4361 9L72.7141 17.2483L72.3845 15.4789L71.4324 10.0909C71.4324 10.0909 71.3103 9.0133 70.0653 9.0133H65.561L65.5 9.21286C65.5 9.21286 66.8793 9.51885 68.4906 10.5831L70.9808 21H73.9592L78.5 9.0133H75.4361V9Z" fill="white"/>
<path fill-rule="evenodd" clip-rule="evenodd" d="M98.9221 21H101.5L99.2458 9H96.9916C95.9484 9 95.6966 9.90566 95.6966 9.90566L91.5 21H94.4257L95.0132 19.2153H98.5863L98.9221 21ZM95.8285 16.7647L97.3153 12.2764L98.1427 16.7647H95.8285Z" fill="white"/>
<path fill-rule="evenodd" clip-rule="evenodd" d="M91.0763 11.9968L91.5 9.51447C91.5 9.51447 90.1648 9 88.791 9C87.3017 9 83.7454 9.65595 83.7454 12.8328C83.7454 15.8296 87.918 15.8553 87.918 17.4373C87.918 19.0064 84.1819 18.7235 82.9494 17.7331L82.5 20.3441C82.5 20.3441 83.8481 21 85.9023 21C87.9565 21 91.0506 19.9325 91.0506 17.0386C91.0506 14.0289 86.8524 13.746 86.8524 12.4341C86.8524 11.1222 89.7796 11.2894 91.0763 11.9968Z" fill="white"/>
<path fill-rule="evenodd" clip-rule="evenodd" d="M72.5 15L71.5319 10C71.5319 10 71.4078 9 70.1418 9H65.5621L65.5 9.18519C65.5 9.18519 67.7092 9.64198 69.8191 11.3457C71.8422 12.9753 72.5 15 72.5 15Z" fill="#FAA634"/>
</g>
<path fill-rule="evenodd" clip-rule="evenodd" d="M166.5 28.4C166.5 29.28 165.76 30 164.833 30H118.167C117.25 30 116.5 29.29 116.5 28.4V1.6C116.5 0.72 117.24 0 118.167 0H164.833C165.75 0 166.5 0.71 166.5 1.6V28.4Z" fill="black"/>
<path d="M129.682 11.3011C130.072 11.1711 130.493 11.1011 130.923 11.1011C132.813 11.1011 134.383 12.4411 134.743 14.2211L137.413 13.6711C136.803 10.6411 134.123 8.37109 130.913 8.37109C130.173 8.37109 129.473 8.49109 128.812 8.71109L129.682 11.3011Z" fill="#FFCC00"/>
<path d="M126.533 19.971L128.343 17.931C127.533 17.211 127.023 16.171 127.023 15.011C127.023 13.851 127.533 12.801 128.343 12.091L126.533 10.041C125.163 11.251 124.293 13.021 124.293 15.001C124.293 16.981 125.163 18.751 126.533 19.971Z" fill="#00A0DE"/>
<path d="M134.743 15.7812C134.383 17.5613 132.803 18.9013 130.923 18.9013C130.493 18.9013 130.072 18.8313 129.682 18.7013L128.812 21.2913C129.473 21.5113 130.183 21.6313 130.913 21.6313C134.113 21.6313 136.793 19.3513 137.413 16.3313L134.743 15.7812Z" fill="#E63312"/>
<path d="M139.764 18.0109C139.674 17.8709 139.554 17.6409 139.484 17.4709C139.064 16.4909 139.044 15.4709 139.394 14.4909C139.784 13.4209 140.534 12.6009 141.514 12.1809C142.734 11.6609 144.084 11.7609 145.254 12.4509C145.994 12.8809 146.524 13.5309 146.924 14.4709C146.974 14.5909 147.024 14.7209 147.064 14.8209L139.764 18.0109ZM142.194 13.7609C141.324 14.1309 140.884 14.9509 140.974 15.9009L144.644 14.3209C144.014 13.5809 143.194 13.3309 142.194 13.7609ZM145.104 17.2009L145.024 17.1509C144.804 17.5009 144.464 17.7909 144.034 17.9809C143.214 18.3409 142.454 18.2409 141.904 17.7709L141.854 17.8509L140.924 19.2409C141.154 19.4009 141.404 19.5409 141.664 19.6509C142.694 20.0809 143.744 20.0609 144.784 19.6109C145.534 19.2809 146.124 18.7909 146.524 18.1609L145.104 17.2009Z" fill="white"/>
<path d="M149.612 10.1309V17.8809L150.822 18.3709L150.142 19.9709L148.812 19.4209C148.512 19.2909 148.312 19.0909 148.162 18.8709C148.012 18.6409 147.902 18.3309 147.902 17.9109V10.1409H149.612V10.1309Z" fill="white"/>
<path d="M152.733 15.9128C152.733 15.2528 153.023 14.6628 153.483 14.2628L152.243 12.8828C151.403 13.6228 150.873 14.7028 150.873 15.9128C150.873 17.1228 151.403 18.2028 152.233 18.9428L153.463 17.5628C153.023 17.1528 152.733 16.5728 152.733 15.9128Z" fill="white"/>
<path d="M154.923 18.1016C154.683 18.1016 154.443 18.0616 154.223 17.9916L153.633 19.7416C154.033 19.8816 154.463 19.9516 154.913 19.9516C156.873 19.9516 158.503 18.5616 158.883 16.7216L157.073 16.3516C156.873 17.3516 155.983 18.1116 154.923 18.1016Z" fill="white"/>
<path d="M154.932 11.8613C154.482 11.8613 154.052 11.9313 153.652 12.0713L154.242 13.8313C154.462 13.7613 154.692 13.7213 154.942 13.7213C156.002 13.7213 156.892 14.4813 157.092 15.4813L158.902 15.1113C158.522 13.2613 156.892 11.8613 154.932 11.8613Z" fill="white"/>
<g clip-path="url(#clip1_285_1813)">
<path fill-rule="evenodd" clip-rule="evenodd" d="M224.5 28.4C224.5 29.28 223.76 30 222.833 30H176.167C175.26 30 174.5 29.29 174.5 28.4V1.6C174.5 0.72 175.24 0 176.167 0H222.833C223.75 0 224.5 0.71 224.5 1.6V28.4Z" fill="#B3131B"/>
<path d="M193.632 14.731L193.622 14.532L193.572 14.3329L193.522 14.1339L193.441 13.9846L193.361 13.8354L193.21 13.6861L193.059 13.5368L192.889 13.4473L192.718 13.3577L192.527 13.3079L192.336 13.2582L192.165 13.2482L191.974 13.2383L191.763 13.2582L191.552 13.2781L191.381 13.3179L191.21 13.3577L191.059 13.4274C190.979 13.4672 190.858 13.5269 190.788 13.5667C190.728 13.6065 190.657 13.6562 190.637 13.6662C190.617 13.6861 190.577 13.7159 190.547 13.7358L190.486 13.7757L190.526 13.5766C190.547 13.4672 190.567 13.3677 190.567 13.3577V13.3278H190.155H189.753L189.682 13.7757C189.642 14.0244 189.582 14.4026 189.541 14.6215C189.501 14.8405 189.451 15.1688 189.421 15.348C189.391 15.5271 189.33 15.8555 189.3 16.0645C189.26 16.2734 189.2 16.6118 189.17 16.8208C189.129 17.0198 189.079 17.3183 189.049 17.4776C189.019 17.6368 188.968 17.9353 188.928 18.1443C188.888 18.3533 188.828 18.6817 188.788 18.8708C188.747 19.0698 188.687 19.3783 188.657 19.5574C188.627 19.7365 188.587 19.9156 188.576 19.9356L188.566 19.9853H189.049H189.531L189.541 19.9455C189.551 19.9256 189.551 19.8858 189.551 19.846C189.551 19.8062 189.572 19.6768 189.592 19.5574C189.612 19.438 189.652 19.1494 189.692 18.9205C189.732 18.6916 189.783 18.3533 189.813 18.1642C189.843 17.9751 189.883 17.7363 189.893 17.6268C189.903 17.5174 189.923 17.4378 189.933 17.4378C189.943 17.4378 189.974 17.4875 190.004 17.5472L190.064 17.6567L190.185 17.7761L190.305 17.8955L190.456 17.9552L190.607 18.0149L190.788 18.0348L190.969 18.0547L191.2 18.0448L191.431 18.0348L191.682 17.9751L191.934 17.9154L192.064 17.8557C192.135 17.8259 192.265 17.7463 192.356 17.6965L192.517 17.597L192.667 17.4477C192.748 17.3681 192.858 17.2387 192.919 17.1691C192.979 17.0895 193.029 17.0298 193.029 17.0198C193.029 17.0098 193.059 16.97 193.09 16.9103C193.12 16.8606 193.2 16.7213 193.25 16.5919C193.301 16.4725 193.381 16.2535 193.431 16.1043L193.522 15.8356L193.562 15.6067C193.582 15.4773 193.622 15.2684 193.632 15.139L193.663 14.9002L193.632 14.731ZM192.627 15.129L192.617 15.547L192.557 15.7958C192.527 15.9351 192.466 16.1441 192.426 16.2635L192.346 16.4824L192.255 16.6616C192.205 16.7611 192.125 16.8904 192.074 16.9501C192.024 17.0098 191.954 17.0895 191.914 17.1293C191.873 17.1691 191.803 17.2188 191.753 17.2586L191.672 17.3183L191.481 17.378L191.29 17.4378L191.099 17.4477L190.908 17.4577L190.788 17.4378L190.667 17.4179L190.547 17.3581L190.426 17.2984L190.335 17.2188L190.245 17.1392L190.195 17.0298C190.165 16.97 190.134 16.8606 190.114 16.8009L190.084 16.6815L190.094 16.4924L190.104 16.3033L190.165 16.0048C190.195 15.8356 190.255 15.5271 190.295 15.3181C190.335 15.1091 190.386 14.7907 190.426 14.6215L190.486 14.313L190.617 14.2036C190.687 14.1439 190.798 14.0642 190.868 14.0344L190.989 13.9647L191.15 13.915L191.311 13.8652L191.512 13.8553L191.713 13.8453L191.873 13.8752L192.034 13.905L192.155 13.9548L192.275 14.0045L192.376 14.1041L192.476 14.2036L192.527 14.3031C192.557 14.3628 192.597 14.4723 192.617 14.5519L192.657 14.6912L192.627 15.129Z" fill="white"/>
<path d="M198.195 14.114L198.155 13.9647L198.094 13.8652C198.064 13.8055 198.004 13.7259 197.964 13.6861C197.924 13.6463 197.863 13.5866 197.813 13.5567C197.773 13.5269 197.682 13.4771 197.622 13.4373L197.511 13.3776L197.32 13.3278L197.129 13.2781L196.888 13.2582L196.647 13.2383L196.426 13.2482L196.205 13.2582L195.933 13.3079L195.662 13.3577L195.491 13.4274C195.401 13.4672 195.26 13.5269 195.179 13.5766C195.099 13.6264 194.988 13.696 194.938 13.7358C194.878 13.7757 194.787 13.8652 194.727 13.9249C194.667 13.9846 194.576 14.0941 194.526 14.1737C194.476 14.2434 194.395 14.3727 194.355 14.4623C194.315 14.5519 194.255 14.6713 194.225 14.731C194.194 14.7907 194.154 14.9201 194.124 15.0096C194.094 15.0992 194.044 15.2783 194.013 15.3977C193.983 15.5171 193.943 15.7162 193.923 15.8455L193.883 16.0744V16.4028V16.7312L193.913 16.8705C193.933 16.9501 193.963 17.0696 193.993 17.1392C194.013 17.2089 194.064 17.3084 194.094 17.3582C194.124 17.4179 194.194 17.4975 194.245 17.5572C194.295 17.6069 194.385 17.6865 194.446 17.7363C194.506 17.7861 194.617 17.8458 194.687 17.8756L194.818 17.9353L194.999 17.9751C195.099 17.995 195.25 18.0249 195.34 18.0348C195.421 18.0448 195.602 18.0547 195.742 18.0547H195.984L196.225 18.0348C196.356 18.0249 196.587 17.995 196.717 17.9751C196.848 17.9552 197.089 17.9154 197.24 17.8856L197.511 17.8259L197.522 17.7264C197.532 17.6666 197.562 17.5074 197.592 17.3681L197.642 17.1094L197.632 17.0994L197.622 17.0895L197.542 17.1293C197.491 17.1492 197.351 17.1989 197.22 17.2487L196.989 17.3283L196.737 17.3781L196.486 17.4278H196.094H195.702L195.571 17.388C195.501 17.3681 195.391 17.3183 195.33 17.2885L195.22 17.2387L195.129 17.1591L195.039 17.0795L194.968 16.9601L194.898 16.8407L194.858 16.6914L194.818 16.5421V16.2635V15.9849L194.858 15.7361L194.898 15.4873L195.23 15.4674L195.561 15.4475L196.808 15.4574L198.054 15.4674L198.094 15.3082C198.115 15.2186 198.145 15.0395 198.165 14.9101L198.195 14.6713V14.4723V14.2732V14.114ZM197.331 14.731L197.31 14.9499H196.185C195.561 14.9499 195.059 14.9499 195.059 14.94C195.059 14.93 195.089 14.8604 195.119 14.7708C195.149 14.6812 195.21 14.5519 195.25 14.4723L195.32 14.3429L195.471 14.1936L195.622 14.0443L195.762 13.9747C195.843 13.9349 195.943 13.8951 195.994 13.8851C196.044 13.8752 196.185 13.8553 196.305 13.8453L196.526 13.8354L196.697 13.8553L196.868 13.8752L196.989 13.9349L197.109 13.9946L197.18 14.0642C197.22 14.1041 197.26 14.1638 197.28 14.1936L197.31 14.2533L197.331 14.3827L197.351 14.5121L197.331 14.731Z" fill="white"/>
<path d="M202.87 18.0668H203.111L203.393 18.037C203.544 18.0171 203.755 17.9872 203.845 17.9673C203.946 17.9474 204.096 17.9076 204.187 17.8877C204.277 17.8579 204.368 17.828 204.378 17.828C204.388 17.828 204.418 17.7185 204.438 17.6091C204.458 17.4996 204.488 17.3404 204.498 17.2707C204.508 17.2011 204.519 17.1314 204.508 17.1314C204.508 17.1314 204.488 17.1314 204.468 17.1414C204.448 17.1513 204.348 17.2011 204.227 17.2409L204.016 17.3205L203.704 17.3802L203.393 17.4399L203.131 17.43L202.87 17.42L202.719 17.3702L202.569 17.3205L202.458 17.221L202.347 17.1215L202.267 16.9821L202.187 16.8428L202.146 16.6637L202.106 16.4846V16.2457V16.0069L202.146 15.7183L202.187 15.4297L202.237 15.2705C202.267 15.1809 202.287 15.0814 202.297 15.0516C202.307 15.0217 202.347 14.9123 202.388 14.8227C202.428 14.7331 202.498 14.5938 202.548 14.5042L202.639 14.355L202.749 14.2455L202.86 14.136L202.971 14.0664L203.081 13.9967L203.222 13.9569C203.302 13.937 203.443 13.8972 203.533 13.8873L203.704 13.8574L203.946 13.8674L204.187 13.8773L204.478 13.937L204.77 13.9967L204.89 14.0365C204.951 14.0564 205.011 14.0763 205.011 14.0763C205.011 14.0763 205.031 13.9967 205.041 13.8972C205.061 13.7977 205.081 13.6285 205.102 13.529C205.122 13.4295 205.132 13.3399 205.122 13.33C205.112 13.32 205.031 13.3101 204.931 13.3001C204.83 13.2902 204.549 13.2703 204.318 13.2504L203.885 13.2305L203.584 13.2504L203.282 13.2703L203.061 13.32L202.84 13.3698L202.699 13.4295C202.619 13.4594 202.508 13.5191 202.438 13.5589C202.378 13.5987 202.297 13.6484 202.257 13.6683C202.227 13.6882 202.116 13.7877 202.026 13.8773L201.855 14.0465L201.754 14.1858C201.704 14.2654 201.614 14.4246 201.553 14.5441L201.443 14.763L201.362 14.9919C201.322 15.1212 201.252 15.3302 201.222 15.4596L201.161 15.6885L201.141 15.8974L201.121 16.1064V16.3851V16.6637L201.141 16.8229L201.161 16.9821L201.232 17.1513L201.302 17.3205L201.382 17.4399L201.463 17.5593L201.583 17.6787L201.704 17.7982L201.835 17.8678L201.965 17.9375L202.136 17.9872C202.227 18.0171 202.367 18.0469 202.438 18.0569C202.569 18.0569 202.739 18.0668 202.87 18.0668Z" fill="white"/>
<path d="M209.344 13.8075L209.284 13.6781L209.193 13.5985L209.103 13.5189L208.962 13.4492L208.821 13.3796L208.61 13.3298L208.399 13.28L208.108 13.2601L207.816 13.2402L207.444 13.2601C207.243 13.2701 206.952 13.2999 206.801 13.3198L206.54 13.3497H206.359H206.178L206.148 13.4791C206.137 13.5487 206.087 13.7179 206.057 13.8473C206.027 13.9766 205.997 14.0961 205.997 14.0961C205.997 14.0961 206.097 14.0762 206.218 14.0463C206.338 14.0164 206.58 13.9667 206.761 13.9368L207.092 13.8771L207.394 13.8672L207.695 13.8572L207.886 13.8871L208.077 13.9169L208.208 13.9766L208.339 14.0363L208.409 14.1458L208.479 14.2553V14.4245V14.5936L208.439 14.7827L208.399 14.9718H207.595H206.791L206.529 15.0414C206.389 15.0812 206.228 15.131 206.178 15.1609C206.127 15.1808 206.077 15.2007 206.067 15.2007C206.057 15.2007 205.967 15.2504 205.876 15.3101L205.705 15.4196L205.575 15.549C205.504 15.6186 205.404 15.7281 205.363 15.7878C205.323 15.8475 205.253 15.9769 205.213 16.0664L205.142 16.2356L205.112 16.4247L205.082 16.6138V16.8128V17.0118L205.112 17.181L205.142 17.3502L205.203 17.4596C205.233 17.5193 205.293 17.6089 205.343 17.6586L205.414 17.7482L205.544 17.8278L205.675 17.9074L205.826 17.9472C205.906 17.9671 206.037 17.997 206.107 18.0069L206.238 18.0269L206.54 18.0169L206.841 18.0069L207.032 17.9572L207.223 17.9074L207.344 17.8477C207.414 17.8179 207.525 17.7582 207.585 17.7084C207.655 17.6686 207.756 17.579 207.816 17.5193C207.876 17.4596 207.967 17.3601 208.017 17.2904C208.067 17.2307 208.108 17.181 208.118 17.181C208.118 17.181 208.108 17.2904 208.098 17.4099C208.077 17.5293 208.067 17.6885 208.067 17.7681V17.9074H208.479H208.892L208.902 17.589L208.912 17.2705L208.972 16.8625C209.002 16.6337 209.052 16.3053 209.093 16.1162C209.133 15.9271 209.183 15.6286 209.213 15.4295C209.253 15.2305 209.304 14.932 209.334 14.7528L209.394 14.4344V14.1558V13.8771L209.344 13.8075ZM208.278 15.7181C208.258 15.8176 208.218 15.9868 208.188 16.1062C208.158 16.2257 208.098 16.3948 208.067 16.4844C208.027 16.5739 207.997 16.6536 207.997 16.6635C207.997 16.6735 207.957 16.7332 207.917 16.8128L207.836 16.9521L207.706 17.0815C207.635 17.1511 207.565 17.2108 207.555 17.2108C207.545 17.2108 207.504 17.2407 207.454 17.2705L207.374 17.3303L207.193 17.39L207.012 17.4497L206.831 17.4596L206.65 17.4696L206.529 17.4397C206.469 17.4198 206.369 17.39 206.308 17.3601L206.208 17.3104L206.148 17.2407C206.117 17.2009 206.067 17.1312 206.047 17.0815L205.997 16.9919L205.987 16.7829L205.977 16.5739L206.017 16.4446C206.037 16.3749 206.087 16.2456 206.127 16.1659L206.198 16.0167L206.328 15.8873L206.459 15.7579L206.6 15.6883L206.741 15.6186L206.921 15.5788L207.102 15.539H207.665H208.228L208.268 15.549L208.309 15.5589L208.278 15.7181Z" fill="white"/>
<path d="M217.103 11.3594H216.621L216.611 11.4987C216.6 11.5783 216.57 11.8271 216.53 12.056C216.49 12.2849 216.43 12.6531 216.399 12.872C216.359 13.0909 216.329 13.2999 216.319 13.3397L216.309 13.4094L216.269 13.3895C216.249 13.3795 216.138 13.3496 216.018 13.3198L215.806 13.27L215.515 13.2501L215.223 13.2302L214.982 13.2501L214.741 13.27L214.52 13.3297L214.299 13.3895L214.088 13.489L213.877 13.5885L213.716 13.7079L213.555 13.8273L213.424 13.9666C213.354 14.0462 213.243 14.1756 213.183 14.2552L213.082 14.4045L212.962 14.6533C212.891 14.7926 212.811 14.9717 212.781 15.0613C212.751 15.1508 212.69 15.3399 212.65 15.4792L212.58 15.7479L212.55 16.0962L212.52 16.4445L212.55 16.7232L212.58 17.0018L212.61 17.1013C212.63 17.161 212.66 17.2506 212.69 17.3202L212.741 17.4397L212.831 17.5591L212.922 17.6785L213.022 17.7581L213.123 17.8377L213.253 17.9074C213.324 17.9472 213.454 17.987 213.525 18.0069C213.605 18.0268 213.726 18.0567 213.806 18.0666C213.887 18.0766 214.037 18.0865 214.158 18.0865H214.369L214.57 18.0567C214.681 18.0367 214.821 18.0069 214.882 17.9969C214.942 17.977 215.053 17.9372 215.123 17.8974L215.254 17.8278L215.364 17.7283L215.475 17.6287L215.595 17.4695C215.666 17.38 215.726 17.2904 215.726 17.2804L215.736 17.2506L215.726 17.3601C215.716 17.4198 215.706 17.5193 215.696 17.579C215.686 17.6387 215.666 17.7581 215.666 17.8377L215.656 17.987H216.098H216.54V17.8377V17.6885L216.611 17.1212C216.651 16.8127 216.701 16.3948 216.731 16.2057C216.761 16.0067 216.812 15.728 216.832 15.5887C216.862 15.4394 216.902 15.1807 216.932 15.0016C216.962 14.8225 217.023 14.514 217.053 14.3149C217.093 14.1159 217.153 13.7975 217.183 13.6084C217.224 13.4193 217.274 13.1208 217.304 12.9516C217.334 12.7824 217.395 12.4839 217.435 12.2849C217.475 12.0858 217.525 11.8171 217.555 11.6778C217.586 11.5385 217.606 11.4191 217.606 11.4091V11.3594H217.103ZM216.188 14.096C216.178 14.1259 216.158 14.2751 216.128 14.4244C216.098 14.5737 216.048 14.8523 216.018 15.0414C215.977 15.2404 215.927 15.529 215.897 15.6982C215.867 15.8673 215.816 16.0763 215.796 16.1659C215.776 16.2555 215.736 16.3848 215.716 16.4445C215.696 16.5042 215.656 16.6137 215.625 16.6834C215.595 16.753 215.535 16.8525 215.495 16.9122C215.455 16.972 215.394 17.0416 215.354 17.0814C215.314 17.1212 215.223 17.1909 215.153 17.2307L215.032 17.3103L214.852 17.37L214.671 17.4297L214.5 17.4397L214.329 17.4496L214.218 17.4297C214.158 17.4198 214.057 17.3899 213.997 17.3601L213.887 17.3103L213.796 17.2406L213.706 17.171L213.635 17.0416L213.565 16.9122L213.535 16.7729L213.505 16.6336V16.345V16.0564L213.545 15.7977L213.585 15.539L213.645 15.3598C213.675 15.2603 213.706 15.1708 213.706 15.1508C213.706 15.1409 213.736 15.0513 213.776 14.9717C213.816 14.8921 213.877 14.7627 213.917 14.6931C213.957 14.6234 214.027 14.504 214.078 14.4443C214.128 14.3846 214.218 14.2751 214.279 14.2254C214.339 14.1657 214.429 14.096 214.49 14.0661L214.59 14.0064L214.771 13.9467L214.952 13.887H215.324H215.696L215.907 13.9467C216.028 13.9766 216.148 14.0164 216.178 14.0263L216.239 14.0462L216.188 14.096Z" fill="white"/>
<path d="M181.57 17.9565H182.113L182.153 17.7176C182.173 17.5883 182.213 17.3395 182.244 17.1604C182.274 16.9812 182.324 16.6529 182.364 16.4339C182.404 16.205 182.455 15.8766 182.495 15.6876C182.525 15.5084 182.575 15.2199 182.605 15.0606C182.636 14.9014 182.666 14.7621 182.676 14.7521L182.686 14.7422H184.143H185.601L185.621 14.7621L185.641 14.782L185.611 14.9114C185.601 14.981 185.561 15.2 185.52 15.389C185.48 15.5881 185.42 15.9165 185.38 16.1155C185.339 16.3245 185.289 16.613 185.259 16.7723C185.229 16.9215 185.169 17.24 185.128 17.4788C185.088 17.7176 185.048 17.9266 185.048 17.9366V17.9664H185.591H186.134L186.154 17.8271C186.164 17.7475 186.184 17.6181 186.204 17.5186C186.214 17.4291 186.244 17.23 186.274 17.0907C186.294 16.9414 186.345 16.6529 186.385 16.4439C186.425 16.2349 186.485 15.8866 186.516 15.6577C186.556 15.4288 186.606 15.1004 186.636 14.9313C186.666 14.7521 186.717 14.4536 186.757 14.2645C186.797 14.0754 186.857 13.757 186.887 13.558C186.918 13.359 186.978 13.0505 187.008 12.8813C187.038 12.7121 187.099 12.4036 187.139 12.1946C187.179 11.9857 187.229 11.7468 187.249 11.6573L187.29 11.498H186.737H186.184L186.174 11.6075C186.164 11.6672 186.144 11.8264 186.113 11.9658C186.093 12.1051 186.043 12.3539 186.013 12.523C185.983 12.6922 185.933 13.0007 185.892 13.2196C185.852 13.4386 185.812 13.7272 185.792 13.8665L185.752 14.1153L184.937 14.1352L184.123 14.1551L183.44 14.1352C183.068 14.1252 182.756 14.1153 182.756 14.1153C182.756 14.1153 182.766 14.0257 182.786 13.9262C182.806 13.8267 182.837 13.6475 182.867 13.5281C182.887 13.4087 182.937 13.1798 182.967 13.0206C182.997 12.8514 183.038 12.6524 183.048 12.5628C183.058 12.4733 183.088 12.334 183.108 12.2444C183.128 12.1548 183.158 11.9658 183.188 11.8264C183.209 11.6871 183.239 11.5578 183.249 11.5379L183.259 11.498H182.716H182.163L182.133 11.6871C182.113 11.7966 182.093 11.9459 182.073 12.0255C182.063 12.1051 182.022 12.3539 181.982 12.5927C181.942 12.8216 181.892 13.1699 181.862 13.359C181.831 13.548 181.771 13.8963 181.741 14.1252C181.701 14.3541 181.64 14.7123 181.6 14.9213C181.56 15.1303 181.51 15.4189 181.48 15.5781C181.45 15.7274 181.399 16.016 181.359 16.2249C181.319 16.424 181.269 16.7126 181.238 16.8519C181.208 17.0012 181.178 17.1703 181.168 17.23C181.158 17.2897 181.118 17.4689 181.088 17.6181C181.057 17.7674 181.027 17.9167 181.027 17.9366V17.9764L181.57 17.9565Z" fill="white"/>
<path d="M187.58 17.9571H188.062L188.072 17.9173C188.082 17.8974 188.082 17.8476 188.082 17.8078C188.082 17.768 188.112 17.5491 188.153 17.3202C188.193 17.0913 188.253 16.7231 188.293 16.4942C188.333 16.2654 188.384 15.937 188.414 15.7678C188.444 15.5986 188.494 15.3001 188.534 15.111C188.575 14.9319 188.625 14.6433 188.655 14.4841C188.685 14.3248 188.746 14.0064 188.796 13.7875C188.836 13.5685 188.876 13.3795 188.886 13.3695L188.896 13.3496L188.414 13.3596L187.931 13.3695L187.891 13.6581C187.871 13.8173 187.821 14.1258 187.781 14.3547C187.74 14.5836 187.69 14.9219 187.66 15.121C187.63 15.32 187.57 15.6285 187.539 15.8176C187.499 16.0066 187.449 16.2952 187.419 16.4644C187.389 16.6336 187.328 16.9222 187.298 17.1112C187.258 17.3003 187.208 17.5491 187.188 17.6685C187.167 17.7879 187.137 17.8974 187.127 17.9272L187.117 17.977H187.58V17.9571Z" fill="white"/>
<path d="M198.838 17.9572H199.32L199.33 17.7582C199.34 17.6487 199.361 17.4298 199.391 17.2606C199.421 17.1014 199.471 16.7829 199.501 16.5441C199.542 16.3152 199.612 15.9271 199.662 15.6883C199.712 15.4494 199.763 15.2106 199.783 15.1609C199.803 15.1111 199.813 15.0514 199.813 15.0414C199.813 15.0215 199.853 14.932 199.893 14.8424C199.934 14.7528 200.024 14.6036 200.074 14.524L200.175 14.3747L200.315 14.2453L200.456 14.116L200.627 14.0363L200.798 13.9567H201.059H201.321L201.451 13.9965C201.522 14.0164 201.582 14.0363 201.592 14.0363C201.602 14.0363 201.602 14.0164 201.602 13.9866C201.602 13.9567 201.632 13.8075 201.662 13.6582C201.693 13.5089 201.723 13.3796 201.723 13.3696C201.723 13.3597 201.652 13.3298 201.562 13.3099C201.471 13.28 201.351 13.2502 201.291 13.2502L201.18 13.2402L201.039 13.2701C200.959 13.28 200.838 13.3198 200.778 13.3397C200.708 13.3597 200.607 13.4194 200.537 13.4592C200.466 13.499 200.366 13.5786 200.305 13.6383C200.245 13.698 200.145 13.8174 200.084 13.897C200.024 13.9866 199.954 14.0762 199.934 14.0961L199.903 14.1359L199.923 14.0463C199.934 13.9965 199.964 13.8373 199.994 13.688C200.024 13.5388 200.044 13.4094 200.054 13.3796L200.064 13.3397H199.642H199.22V13.3895C199.22 13.4194 199.19 13.5985 199.16 13.7876C199.129 13.9766 199.079 14.2851 199.049 14.4842C199.019 14.6832 198.959 15.0215 198.928 15.2405C198.888 15.4594 198.838 15.7778 198.808 15.9371C198.778 16.1062 198.717 16.3948 198.687 16.5839C198.647 16.773 198.587 17.0815 198.556 17.2705C198.516 17.4596 198.476 17.6786 198.456 17.7681C198.436 17.8477 198.426 17.9273 198.426 17.9373V17.9572H198.838Z" fill="white"/>
<path d="M210.178 17.957H210.67V17.8077V17.6585L210.73 17.2903C210.761 17.0912 210.811 16.7728 210.841 16.5837C210.871 16.3946 210.911 16.1558 210.931 16.0563C210.951 15.9568 210.992 15.7279 211.032 15.5587C211.072 15.3895 211.112 15.2005 211.132 15.1507C211.153 15.091 211.173 15.0412 211.173 15.0213C211.173 15.0014 211.213 14.9019 211.263 14.8024L211.354 14.6133L211.474 14.4541L211.595 14.2949L211.725 14.1954C211.796 14.1456 211.916 14.066 211.987 14.0362L212.117 13.9765H212.399H212.68L212.791 14.0163L212.902 14.0561L212.922 14.0461L212.942 14.0362V13.9665C212.942 13.9267 212.962 13.7874 212.992 13.6481L213.042 13.3993L212.972 13.3495C212.942 13.3396 212.861 13.3097 212.801 13.2898L212.69 13.25H212.489H212.288L212.128 13.3097L211.967 13.3694L211.846 13.4391L211.725 13.5087L211.565 13.6779L211.404 13.8471L211.313 13.9765C211.263 14.0461 211.223 14.1058 211.223 14.0959C211.223 14.0959 211.243 13.9466 211.283 13.7675C211.323 13.5883 211.343 13.4192 211.343 13.3993V13.3495H210.931H210.519V13.3595C210.519 13.3694 210.499 13.5087 210.469 13.6779C210.439 13.8471 210.389 14.1655 210.358 14.3845C210.318 14.6133 210.258 14.9716 210.228 15.1905C210.188 15.4094 210.137 15.7279 210.107 15.8871C210.077 16.0563 210.017 16.3449 209.987 16.534C209.946 16.723 209.886 17.0315 209.856 17.2106C209.826 17.3898 209.775 17.6386 209.745 17.748L209.705 17.957H210.178Z" fill="white"/>
<path d="M188.525 12.5524H188.666L188.777 12.5126L188.877 12.4828L188.978 12.3832L189.068 12.2837L189.118 12.1643L189.169 12.035L189.179 11.8459V11.6568L189.128 11.5871L189.088 11.5075L189.008 11.4578L188.927 11.418H188.767H188.596L188.485 11.4677L188.365 11.5175L188.304 11.5871L188.234 11.6568L188.184 11.7762L188.133 11.8956L188.123 12.0847L188.113 12.2837L188.153 12.3733L188.204 12.4629L188.304 12.5126L188.395 12.5524H188.525Z" fill="white"/>
</g>
<rect x="232.5" width="50" height="30" rx="2" fill="#006FCF"/>
<path d="M278.5 15.9914V3H236.5V27H278.5V20.0002C278.408 20.0002 278.5 15.9914 278.5 15.9914Z" fill="#006FCF"/>
<path d="M273.358 13.2646H276.535V6.00821H273.073V7.01787L272.421 6.00821H269.428V7.29696L268.868 6.00821H263.349C263.165 6.00821 262.973 6.0985 262.789 6.0985C262.605 6.0985 262.504 6.1888 262.32 6.27909C262.136 6.36939 262.036 6.36939 261.852 6.45968V6H246.041L245.572 7.19025L245.104 6H241.366V7.28875L240.806 6H237.813L236.5 9.12748V13.2564H238.649L239.025 12.2467H239.778L240.154 13.2564H256.618V12.337L257.27 13.2564H261.852V12.7064C261.944 12.7967 262.136 12.7967 262.228 12.887C262.32 12.9773 262.513 12.9773 262.605 13.0676C262.789 13.1579 262.981 13.1579 263.165 13.1579H266.535L266.911 12.1482H267.663L268.04 13.1579H272.622V12.2385L273.358 13.2646ZM278.5 22.45V15.6533H252.78L252.128 16.5727L251.467 15.6533H243.984V22.9097H251.467L252.119 21.9903L252.772 22.9097H257.446V21.3501H257.262C257.914 21.3501 258.474 21.2598 258.942 21.071V23H262.312V22.0806L262.964 23H276.903C277.472 22.8112 278.032 22.7209 278.5 22.45Z" fill="white"/>
<path d="M276.911 20.9564H274.386V22H276.819C277.848 22 278.5 21.3382 278.5 20.388C278.5 19.4378 277.94 18.9627 277.003 18.9627H275.883C275.599 18.9627 275.415 18.776 275.415 18.4876C275.415 18.1991 275.599 18.0124 275.883 18.0124H278.032L278.5 16.9689H275.975C274.946 16.9689 274.294 17.6307 274.294 18.4876C274.294 19.4378 274.854 19.9129 275.791 19.9129H276.911C277.196 19.9129 277.38 20.0995 277.38 20.388C277.472 20.7698 277.288 20.9564 276.911 20.9564ZM272.329 20.9564H269.804V22H272.237C273.266 22 273.918 21.3382 273.918 20.388C273.918 19.4378 273.358 18.9627 272.421 18.9627H271.301C271.016 18.9627 270.832 18.776 270.832 18.4876C270.832 18.1991 271.016 18.0124 271.301 18.0124H273.45L273.918 16.9689H271.393C270.364 16.9689 269.712 17.6307 269.712 18.4876C269.712 19.4378 270.272 19.9129 271.209 19.9129H272.329C272.613 19.9129 272.797 20.0995 272.797 20.388C272.889 20.7698 272.605 20.9564 272.329 20.9564ZM269.051 17.9191V16.8756H265.122V21.9067H269.051V20.8631H266.242V19.8196H268.951V18.776H266.242V17.8258H269.051V17.9191ZM262.697 17.9191C263.165 17.9191 263.349 18.2076 263.349 18.4876C263.349 18.776 263.165 19.056 262.697 19.056H261.292V17.8258L262.697 17.9191ZM261.292 20.0995H261.852L263.349 21.9067H264.754L263.073 20.0062C263.917 19.8196 264.386 19.2426 264.386 18.4876C264.386 17.5373 263.734 16.8756 262.705 16.8756H260.088V21.9067H261.208L261.292 20.0995ZM258.299 18.5809C258.299 18.9627 258.115 19.2426 257.646 19.2426H256.15V17.9106H257.554C258.014 17.9191 258.299 18.2076 258.299 18.5809ZM255.021 16.8756V21.9067H256.141V20.2014H257.638C258.666 20.2014 259.419 19.5396 259.419 18.496C259.419 17.5458 258.767 16.7907 257.738 16.7907L255.021 16.8756ZM253.34 21.9067H254.745L252.78 19.3445L254.745 16.8756H253.34L252.128 18.4876L250.915 16.8756H249.511L251.476 19.3445L249.511 21.8133H250.915L252.128 20.2014L253.34 21.9067ZM249.126 17.9191V16.8756H245.196V21.9067H249.126V20.8631H246.316V19.8196H249.026V18.776H246.316V17.8258H249.126V17.9191ZM271.861 8.99378L273.826 12.0311H275.231V7H274.11V10.3258L273.826 9.85068L272.045 7H270.548V12.0311H271.669V8.61199L271.861 8.99378ZM266.995 8.90045L267.371 7.8569L267.747 8.90045L268.215 10.0373H266.535L266.995 8.90045ZM268.959 12.0311H270.172L268.023 7.00848H266.526L264.377 12.0396H265.59L266.058 10.996H268.491L268.959 12.0311ZM263.725 12.0311L264.193 10.9876H263.909C263.065 10.9876 262.596 10.4191 262.596 9.56222V9.46889C262.596 8.61199 263.065 8.04355 263.909 8.04355H265.122V7H263.809C262.312 7 261.468 8.04355 261.468 9.46889V9.56222C261.476 11.0894 262.32 12.0311 263.725 12.0311ZM259.511 12.0311H260.631V7.09333H259.511V12.0311ZM257.078 8.05204C257.546 8.05204 257.73 8.3405 257.73 8.62048C257.73 8.90894 257.546 9.18891 257.078 9.18891H255.673V7.95871L257.078 8.05204ZM255.673 10.2325H256.233L257.73 12.0396H259.135L257.454 10.1391C258.299 9.95249 258.767 9.37557 258.767 8.62048C258.767 7.67025 258.115 7.00848 257.086 7.00848H254.469V12.0396H255.589L255.673 10.2325ZM253.616 8.05204V7.00848H249.686V12.0396H253.616V10.9876H250.807V9.944H253.516V8.90045H250.807V7.95023H253.616V8.05204ZM245.104 12.0311H246.132L247.537 7.95023V12.0311H248.658V7H246.785L245.664 10.4191L244.544 7H242.671V12.0311H243.791V7.95023L245.104 12.0311ZM239.025 8.90045L239.401 7.8569L239.778 8.90045L240.246 10.0373H238.557L239.025 8.90045ZM240.99 12.0311H242.203L240.054 7H238.649L236.5 12.0311H237.712L238.181 10.9876H240.614L240.99 12.0311Z" fill="#006FCF"/>
<g clip-path="url(#clip2_285_1813)">
<path fill-rule="evenodd" clip-rule="evenodd" d="M46.75 38C44.25 38 17.7812 38 3 38C1.75 38 0.5 39.1996 0.5 40.3992C0.5 47.6168 0.5 62.002 0.5 64.4012C0.5 66.8004 1.75 68 4.25 68C18.1979 68 44.25 68 46.75 68C49.25 68 50.5 66.8004 50.5 64.4012C50.5 62.002 50.5 49.5661 50.5 41.5988C50.5 39.1996 49.25 38 46.75 38Z" fill="#F4F4F4"/>
<path fill-rule="evenodd" clip-rule="evenodd" d="M26.9259 56.3759C30.5414 56.3956 33.8391 53.4435 33.8391 49.8497C33.8391 45.93 30.5414 43.2148 26.9259 43.2148H23.817C20.1618 43.2148 17.1522 45.93 17.1522 49.8497C17.1522 53.4435 20.1618 56.3956 23.817 56.3759H26.9259Z" fill="#4186CD"/>
<path fill-rule="evenodd" clip-rule="evenodd" d="M23.7782 43.7383C20.411 43.7383 17.6895 46.4534 17.6895 49.7906C17.6895 53.1376 20.4209 55.8429 23.7782 55.8429C27.1454 55.8429 29.8669 53.1277 29.8669 49.7906C29.8669 46.4534 27.1355 43.7383 23.7782 43.7383ZM20.0634 49.6622C20.0634 48.043 21.0566 46.6608 22.4472 46.1079V53.2166C21.0566 52.6736 20.0733 51.2913 20.0634 49.6622ZM25.0992 53.2166V46.1079C26.4898 46.6608 27.4831 48.043 27.4831 49.6622C27.4831 51.2913 26.4898 52.6736 25.0992 53.2166Z" fill="white"/>
<path fill-rule="evenodd" clip-rule="evenodd" d="M12.156 58.5679C12.156 58.0248 11.868 58.0545 11.5898 58.0545V57.8965C11.8282 57.9064 12.0765 57.9064 12.3149 57.9064C12.5732 57.9064 12.9208 57.8965 13.3777 57.8965C14.967 57.8965 15.8311 58.943 15.8311 60.0094C15.8311 60.6116 15.4735 62.1124 13.3082 62.1124C13.0003 62.1124 12.7023 62.1025 12.4143 62.1025C12.1361 62.1025 11.868 62.1124 11.5898 62.1124V61.9544C11.9574 61.9149 12.1361 61.905 12.156 61.5002V58.5679ZM12.6526 61.3422C12.6526 61.7865 12.9904 61.8458 13.2883 61.8458C14.6094 61.8458 15.0365 60.898 15.0365 60.0291C15.0365 58.943 14.3015 58.1532 13.1294 58.1532C12.8811 58.1532 12.7619 58.1729 12.6526 58.1729V61.3422Z" fill="#211E1F"/>
<path fill-rule="evenodd" clip-rule="evenodd" d="M15.832 61.9544H15.9512C16.1201 61.9544 16.2492 61.9544 16.2492 61.7668V60.2068C16.2492 59.9501 16.1598 59.9205 15.9314 59.802V59.7132C16.2194 59.6342 16.5671 59.5256 16.5968 59.5058C16.6366 59.4861 16.6763 59.4762 16.7061 59.4762C16.7359 59.4762 16.7458 59.5157 16.7458 59.5552V61.7668C16.7458 61.9544 16.8849 61.9544 17.0538 61.9544H17.1531V62.1025C16.9445 62.1025 16.726 62.0926 16.5075 62.0926C16.2889 62.0926 16.0605 62.1025 15.832 62.1025V61.9544ZM16.3585 58.4198C16.2194 58.4198 16.0903 58.2914 16.0903 58.1532C16.0903 58.015 16.2194 57.8965 16.3585 57.8965C16.4975 57.8965 16.6266 58.0051 16.6266 58.1532C16.6266 58.3013 16.5075 58.4198 16.3585 58.4198Z" fill="#211E1F"/>
<path fill-rule="evenodd" clip-rule="evenodd" d="M17.7977 60.235C17.7977 60.0177 17.7381 59.9684 17.46 59.8598V59.7512C17.7083 59.6722 17.9467 59.5932 18.2248 59.4747C18.2447 59.4747 18.2546 59.4846 18.2546 59.534V59.8993C18.5824 59.6623 18.8704 59.4648 19.2578 59.4648C19.7544 59.4648 19.9233 59.8203 19.9233 60.2745V61.7653C19.9233 61.9529 20.0524 61.9529 20.2113 61.9529H20.3305V62.101C20.122 62.101 19.9233 62.0911 19.7147 62.0911C19.5061 62.0911 19.2975 62.101 19.0889 62.101V61.9529H19.1883C19.3472 61.9529 19.4664 61.9529 19.4664 61.7653V60.2745C19.4664 59.9486 19.2677 59.7808 18.93 59.7808C18.7413 59.7808 18.4533 59.9289 18.2546 60.0572V61.7653C18.2546 61.9529 18.3837 61.9529 18.5427 61.9529H18.642V62.101C18.4433 62.101 18.2347 62.0911 18.0262 62.0911C17.8176 62.0911 17.609 62.101 17.4004 62.101V61.9529H17.5097C17.6686 61.9529 17.7878 61.9529 17.7878 61.7653L17.7977 60.235Z" fill="#211E1F"/>
<path fill-rule="evenodd" clip-rule="evenodd" d="M20.8386 60.5824C20.8287 60.6416 20.8287 60.7305 20.8386 60.9378C20.8783 61.5203 21.2657 61.9942 21.7723 61.9942C22.1199 61.9942 22.398 61.8066 22.6265 61.5796L22.7159 61.6783C22.4278 62.0535 22.0603 62.3694 21.5438 62.3694C20.5307 62.3694 20.332 61.4216 20.332 61.0365C20.332 59.832 21.1664 59.4766 21.6133 59.4766C22.1299 59.4766 22.6761 59.7925 22.6861 60.4441C22.6861 60.4836 22.6861 60.5133 22.6761 60.5527L22.6166 60.5922H20.8386V60.5824ZM22.0007 60.2664C22.1596 60.2664 22.1795 60.2072 22.1795 60.1578C22.1795 59.9307 21.9809 59.7431 21.6133 59.7431C21.216 59.7431 20.9379 59.9406 20.8585 60.2664H22.0007Z" fill="#211E1F"/>
<path fill-rule="evenodd" clip-rule="evenodd" d="M22.7148 61.9547H22.8638C23.0128 61.9547 23.1221 61.9547 23.1221 61.7672V60.1479C23.1221 59.9702 22.9234 59.9307 22.844 59.8912V59.8024C23.2413 59.6247 23.4598 59.4766 23.5095 59.4766C23.5393 59.4766 23.5591 59.4963 23.5591 59.5555V60.069H23.5691C23.7081 59.8419 23.9366 59.4766 24.2643 59.4766C24.4034 59.4766 24.5723 59.5753 24.5723 59.7826C24.5723 59.9406 24.4729 60.0788 24.314 60.0788C24.1452 60.0788 24.1452 59.9406 23.9564 59.9406C23.867 59.9406 23.5591 60.069 23.5591 60.4145V61.7672C23.5591 61.9547 23.6684 61.9547 23.8174 61.9547H24.1253V62.1028C23.8273 62.093 23.5989 62.093 23.3605 62.093C23.1419 62.093 22.9135 62.1028 22.7148 62.1028V61.9547Z" fill="#211E1F"/>
<path fill-rule="evenodd" clip-rule="evenodd" d="M24.9393 61.4197C25.0188 61.8246 25.2572 62.1701 25.7042 62.1701C26.0617 62.1701 26.2008 61.9529 26.2008 61.7357C26.2008 61.0149 24.8797 61.242 24.8797 60.2547C24.8797 59.9091 25.1579 59.4648 25.8233 59.4648C26.022 59.4648 26.2803 59.5241 26.5186 59.6426L26.5584 60.2646H26.4193C26.3597 59.8795 26.1412 59.6623 25.7538 59.6623C25.5154 59.6623 25.277 59.8005 25.277 60.0671C25.277 60.7879 26.6875 60.5608 26.6875 61.5284C26.6875 61.9332 26.3696 62.3676 25.6446 62.3676C25.4062 62.3676 25.1181 62.2787 24.8996 62.1602L24.8301 61.4592L24.9393 61.4197Z" fill="#211E1F"/>
<path fill-rule="evenodd" clip-rule="evenodd" d="M31.9822 59.0991H31.8333C31.724 58.3783 31.2274 58.092 30.5619 58.092C29.8765 58.092 28.8932 58.5659 28.8932 60.037C28.8932 61.2811 29.7474 62.1696 30.6612 62.1696C31.2472 62.1696 31.7339 61.755 31.8531 61.1033L31.9922 61.1428L31.8531 62.0413C31.6048 62.1993 30.9393 62.3671 30.542 62.3671C29.1514 62.3671 28.2773 61.439 28.2773 60.0568C28.2773 58.793 29.36 57.8945 30.5221 57.8945C30.9989 57.8945 31.4657 58.0525 31.9226 58.2203L31.9822 59.0991Z" fill="#211E1F"/>
<path fill-rule="evenodd" clip-rule="evenodd" d="M32.2499 61.9535H32.3691C32.5379 61.9535 32.6671 61.9535 32.6671 61.756V58.4979C32.6671 58.1128 32.5777 58.1029 32.3393 58.0437V57.945C32.5876 57.866 32.8458 57.7672 32.975 57.6883C33.0445 57.6488 33.0942 57.6191 33.114 57.6191C33.1538 57.6191 33.1637 57.6586 33.1637 57.6981V61.7462C33.1637 61.9436 33.3027 61.9436 33.4716 61.9436H33.5809V62.0917C33.3723 62.0917 33.1538 62.0819 32.9352 62.0819C32.7167 62.0819 32.4883 62.0917 32.2598 62.0917L32.2499 61.9535Z" fill="#211E1F"/>
<path fill-rule="evenodd" clip-rule="evenodd" d="M36.0851 61.6962C36.0851 61.8048 36.1447 61.8048 36.2539 61.8048C36.3235 61.8048 36.4129 61.7949 36.4923 61.7949V61.9134C36.244 61.9332 35.7573 62.0615 35.648 62.0911L35.6182 62.0714V61.6073C35.2706 61.8937 34.9925 62.0911 34.5753 62.0911C34.2575 62.0911 33.9297 61.8937 33.9297 61.4099V59.9486C33.9297 59.8005 33.9098 59.6524 33.582 59.6228V59.5142C33.7906 59.5043 34.2674 59.4747 34.3369 59.4747C34.4064 59.4747 34.4064 59.5142 34.4064 59.6426V61.1334C34.4064 61.3111 34.4064 61.8048 34.913 61.8048C35.1117 61.8048 35.3799 61.6567 35.6282 61.4494V59.8894C35.6282 59.7709 35.3501 59.7117 35.1315 59.6524V59.5438C35.658 59.5043 35.9857 59.4648 36.0453 59.4648C36.095 59.4648 36.095 59.5043 36.095 59.5734L36.0851 61.6962Z" fill="#211E1F"/>
<path fill-rule="evenodd" clip-rule="evenodd" d="M37.3146 59.9394C37.563 59.732 37.9007 59.5049 38.2384 59.5049C38.9635 59.5049 39.4005 60.1171 39.4005 60.7786C39.4005 61.5783 38.8046 62.3682 37.9106 62.3682C37.4537 62.3682 37.2054 62.2201 37.0465 62.151L36.8577 62.2892L36.7286 62.2201C36.7882 61.8646 36.818 61.5092 36.818 61.134V58.5275C36.818 58.1325 36.7286 58.1227 36.4902 58.0536V57.9548C36.7386 57.8758 36.9968 57.7672 37.1359 57.6883C37.2054 57.6488 37.2551 57.6191 37.2749 57.6191C37.3146 57.6191 37.3246 57.6586 37.3246 57.708L37.3146 59.9394ZM37.2849 61.4895C37.2849 61.7165 37.5133 62.1016 37.9305 62.1016C38.596 62.1016 38.8741 61.4697 38.8741 60.9267C38.8741 60.275 38.3675 59.732 37.8808 59.732C37.6524 59.732 37.4537 59.8801 37.2849 60.0183V61.4895Z" fill="#211E1F"/>
</g>
<g clip-path="url(#clip3_285_1813)">
<path d="M104.968 38H62.026C60.08 38 58.5 39.476 58.5 41.294V64.706C58.5 66.524 60.08 68 62.026 68H104.974C106.92 68 108.5 66.524 108.5 64.706V41.294C108.494 39.476 106.914 38 104.968 38Z" fill="#F37421"/>
<path d="M66.5 46.4199V56.9199H68.882V52.5279H72.794V56.9199H75.164V46.4199H72.794V50.4579H68.882V46.4199H66.5Z" fill="white"/>
<path d="M95.6718 53.867C95.7018 53.693 95.7498 53.339 95.7498 52.931C95.7498 51.047 94.8138 49.127 92.3538 49.127C89.7078 49.127 88.5078 51.263 88.5078 53.195C88.5078 55.577 89.9898 57.077 92.5758 57.077C93.6018 57.077 94.5558 56.921 95.3358 56.609L95.0238 55.007C94.3878 55.211 93.7278 55.319 92.9178 55.319C91.8138 55.319 90.8478 54.851 90.7698 53.873H95.6718V53.867ZM90.7458 52.247C90.8058 51.611 91.2138 50.705 92.2098 50.705C93.3018 50.705 93.5478 51.671 93.5478 52.247H90.7458Z" fill="white"/>
<path d="M96.5053 56.9208H98.8753V53.0568C98.8753 52.8708 98.8933 52.6848 98.9233 52.5288C99.0793 51.7968 99.6733 51.3288 100.543 51.3288C100.807 51.3288 101.011 51.3588 101.179 51.3888V49.1628C101.005 49.1328 100.897 49.1328 100.681 49.1328C99.9493 49.1328 99.0133 49.6008 98.6233 50.7048H98.5633L98.4853 49.3008H96.4453C96.4753 49.9548 96.5053 50.6868 96.5053 51.8088V56.9208Z" fill="white"/>
<path fill-rule="evenodd" clip-rule="evenodd" d="M77.5696 46C78.2416 46 78.7876 46.546 78.7876 47.218C78.7876 47.89 78.2416 48.436 77.5696 48.436C76.8976 48.436 76.3516 47.89 76.3516 47.218C76.3516 46.546 76.8976 46 77.5696 46Z" fill="#FFE700"/>
<path fill-rule="evenodd" clip-rule="evenodd" d="M82.5736 55.1433H83.7616C84.9556 55.1433 85.4956 54.3813 85.4956 53.5833C85.4956 52.7853 85.4356 50.9853 83.9656 50.9853C82.2736 50.9853 82.5436 53.2233 82.5556 54.3933C82.5496 54.6453 82.5676 54.8973 82.5736 55.1433ZM76.3516 49.2933H78.7876V53.5893C78.7876 54.3873 79.2316 55.1493 80.2096 55.1493C80.2156 53.2173 80.2096 51.2253 80.1436 49.2933H82.1776C82.2196 49.6653 82.2616 50.0373 82.2976 50.4093C83.2576 48.4893 86.2876 48.9093 87.3076 50.5353C88.3576 52.2093 88.7176 57.0093 83.7616 57.0093H82.6096C82.6216 57.9813 82.6216 58.9593 82.6216 59.9373H80.1856C80.1856 59.0013 80.1916 58.0173 80.1976 57.0093C77.5636 56.9973 76.3516 55.3293 76.3516 53.5893V49.2933Z" fill="white"/>
</g>
<g clip-path="url(#clip4_285_1813)">
<path fill-rule="evenodd" clip-rule="evenodd" d="M166.49 66.3905C166.49 67.2702 165.74 68 164.813 68H118.177C117.26 68 116.5 67.2802 116.5 66.3905V39.6095C116.5 38.7298 117.25 38 118.177 38H164.823C165.74 38 166.5 38.7198 166.5 39.6095L166.49 66.3905Z" fill="white"/>
<path d="M125.575 42.0801H124.66V63.9328H125.575V42.0801Z" fill="#020202"/>
<path d="M128.816 42.0801H126.492V56.9251H128.816V42.0801Z" fill="#020202"/>
<path d="M132.778 42.0801H131.953V56.9251H132.778V42.0801Z" fill="#020202"/>
<path d="M134.779 42.0898H134.176V56.9349H134.779V42.0898Z" fill="#020202"/>
<path d="M135.664 42.0898H135.061V56.9349H135.664V42.0898Z" fill="#020202"/>
<path d="M136.78 42.0898H135.885V56.9349H136.78V42.0898Z" fill="#020202"/>
<path d="M139.897 42.0898H138.188V56.9349H139.897V42.0898Z" fill="#020202"/>
<path d="M141.046 42.0898H140.482V56.9349H141.046V42.0898Z" fill="#020202"/>
<path d="M144.978 42.0898H142.162V56.9349H144.978V42.0898Z" fill="#020202"/>
<path d="M147.28 42.0898H146.184V56.9349H147.28V42.0898Z" fill="#020202"/>
<path d="M148.979 42.0898H148.145V56.9349H148.979V42.0898Z" fill="#020202"/>
<path d="M150.952 42.0898H150.439V56.9349H150.952V42.0898Z" fill="#020202"/>
<path d="M152.671 42.0898H152.088V56.9349H152.671V42.0898Z" fill="#020202"/>
<path d="M156.051 42.0898H154.371V56.9349H156.051V42.0898Z" fill="#020202"/>
<path d="M157.208 42.0898H156.353V56.9349H157.208V42.0898Z" fill="#020202"/>
<path d="M158.949 42.0898H158.094V63.9426H158.949V42.0898Z" fill="#020202"/>
<path d="M126.702 58.2148H128.854C129.277 58.2148 129.598 58.2348 129.81 58.2648C130.021 58.3048 130.212 58.3748 130.373 58.4848C130.534 58.5947 130.675 58.7447 130.785 58.9346C130.896 59.1245 130.946 59.3345 130.946 59.5644C130.946 59.8143 130.876 60.0442 130.745 60.2542C130.604 60.4641 130.423 60.624 130.192 60.724C130.524 60.824 130.775 60.9839 130.946 61.2138C131.127 61.4438 131.208 61.7137 131.208 62.0236C131.208 62.2635 131.147 62.5034 131.037 62.7333C130.926 62.9633 130.765 63.1432 130.574 63.2832C130.373 63.4231 130.132 63.5031 129.84 63.5331C129.659 63.5531 129.216 63.5631 128.522 63.5731H126.682V58.2148H126.702ZM127.798 59.1145V60.3541H128.512C128.935 60.3541 129.196 60.3441 129.307 60.3341C129.498 60.3141 129.639 60.2442 129.749 60.1442C129.86 60.0342 129.91 59.8943 129.91 59.7243C129.91 59.5544 129.86 59.4244 129.769 59.3245C129.679 59.2245 129.538 59.1545 129.357 59.1345C129.246 59.1245 128.935 59.1145 128.422 59.1145H127.798ZM127.798 61.2438V62.6734H128.804C129.196 62.6734 129.448 62.6634 129.548 62.6434C129.709 62.6134 129.84 62.5434 129.94 62.4334C130.041 62.3235 130.091 62.1635 130.091 61.9736C130.091 61.8136 130.051 61.6737 129.971 61.5637C129.89 61.4538 129.78 61.3738 129.629 61.3138C129.478 61.2638 129.156 61.2338 128.663 61.2338H127.798V61.2438Z" fill="black"/>
<path d="M131.922 60.9341C131.922 60.3842 132.002 59.9344 132.173 59.5545C132.294 59.2846 132.465 59.0347 132.676 58.8148C132.888 58.5948 133.119 58.4349 133.37 58.3349C133.702 58.195 134.094 58.125 134.537 58.125C135.332 58.125 135.965 58.3749 136.448 58.8648C136.921 59.3546 137.162 60.0344 137.162 60.9141C137.162 61.7838 136.921 62.4536 136.448 62.9434C135.975 63.4332 135.342 63.6732 134.547 63.6732C133.742 63.6732 133.109 63.4332 132.636 62.9434C132.163 62.4536 131.922 61.7838 131.922 60.9341ZM133.048 60.8941C133.048 61.5039 133.189 61.9637 133.471 62.2736C133.753 62.5835 134.115 62.7435 134.547 62.7435C134.98 62.7435 135.342 62.5835 135.613 62.2736C135.895 61.9637 136.036 61.4939 136.036 60.8741C136.036 60.2643 135.905 59.8044 135.633 59.4945C135.362 59.1846 135 59.0447 134.557 59.0447C134.115 59.0447 133.742 59.1946 133.471 59.5045C133.179 59.8144 133.048 60.2743 133.048 60.8941Z" fill="black"/>
<path d="M138.037 63.5839V58.2656H139.123V62.6842H141.829V63.5839H138.037Z" fill="black"/>
<path d="M142.613 63.5828V58.2246H146.616V59.1343H143.71V60.3239H146.415V61.2236H143.71V62.6831H146.727V63.5828H142.613Z" fill="black"/>
<path d="M148.849 63.5831V59.1245H147.25V58.2148H151.535V59.1245H149.936V63.5831H148.849Z" fill="black"/>
<path d="M151.887 60.9341C151.887 60.3842 151.967 59.9344 152.138 59.5545C152.259 59.2846 152.43 59.0347 152.641 58.8148C152.852 58.5948 153.084 58.4349 153.335 58.3349C153.667 58.195 154.059 58.125 154.502 58.125C155.296 58.125 155.93 58.3749 156.413 58.8648C156.896 59.3546 157.127 60.0344 157.127 60.9141C157.127 61.7838 156.886 62.4536 156.413 62.9434C155.94 63.4332 155.306 63.6732 154.512 63.6732C153.707 63.6732 153.074 63.4332 152.601 62.9434C152.118 62.4536 151.887 61.7838 151.887 60.9341ZM153.013 60.8941C153.013 61.5039 153.154 61.9637 153.436 62.2736C153.717 62.5835 154.079 62.7435 154.512 62.7435C154.944 62.7435 155.306 62.5835 155.578 62.2736C155.86 61.9637 156 61.4939 156 60.8741C156 60.2643 155.87 59.8044 155.598 59.4945C155.327 59.1946 154.965 59.0447 154.522 59.0447C154.069 59.0447 153.707 59.1946 153.436 59.5045C153.144 59.8144 153.013 60.2743 153.013 60.8941Z" fill="black"/>
</g>
<path d="M195.744 59.9251C195.744 60.0245 195.662 60.1051 195.561 60.1051C195.461 60.1051 195.379 60.0245 195.379 59.9251V50.6339C195.379 48.825 196.865 47.3586 198.698 47.3586H198.699L201.479 47.3626C203.307 47.3663 204.787 48.8296 204.787 50.6335V52.6112C204.787 54.4201 203.301 55.8866 201.468 55.8866H197.539C197.438 55.8866 197.357 55.806 197.357 55.7066C197.357 55.6072 197.438 55.5266 197.539 55.5266H201.468C203.099 55.5266 204.422 54.2213 204.422 52.6112V50.6335C204.422 49.0281 203.105 47.7259 201.478 47.7226L198.698 47.7186C197.067 47.7186 195.744 49.0238 195.744 50.6339V59.9251Z" fill="black"/>
<path d="M208.058 55.7488C208.058 55.8482 207.976 55.9288 207.875 55.9288C207.774 55.9288 207.693 55.8482 207.693 55.7488V48.8082C207.693 48.2061 207.198 47.7179 206.588 47.7179H205.382C205.281 47.7179 205.199 47.6373 205.199 47.5379C205.199 47.4385 205.281 47.3579 205.382 47.3579H206.588C207.4 47.3579 208.058 48.0073 208.058 48.8082V55.7488Z" fill="black"/>
<path d="M217.006 50.835C216.715 51.1223 216.243 51.1223 215.952 50.835L213.154 48.0747C212.685 47.6117 212.049 47.3516 211.385 47.3516H210.189C210.088 47.3516 210.006 47.4322 210.006 47.5316C210.006 47.631 210.088 47.7116 210.189 47.7116H211.385C211.952 47.7116 212.495 47.9337 212.896 48.3293L215.694 51.0895C216.127 51.5174 216.83 51.5174 217.264 51.0895L220.051 48.3394C220.452 47.9439 220.996 47.7217 221.563 47.7217H222.535C222.636 47.7217 222.717 47.6411 222.717 47.5417C222.717 47.4423 222.636 47.3617 222.535 47.3617H221.563C220.899 47.3617 220.263 47.6218 219.793 48.0848L217.006 50.835Z" fill="black"/>
<path d="M210.189 55.8683C210.088 55.8683 210.006 55.7878 210.006 55.6883C210.006 55.5889 210.088 55.5083 210.189 55.5083H211.385C211.952 55.5083 212.495 55.2862 212.896 54.8907L215.694 52.1303C216.127 51.7025 216.83 51.7025 217.264 52.1303L220.051 54.8805C220.452 55.276 220.996 55.4982 221.563 55.4982H222.535C222.636 55.4982 222.717 55.5788 222.717 55.6782C222.717 55.7776 222.636 55.8582 222.535 55.8582H221.563C220.899 55.8582 220.263 55.5981 219.793 55.135L217.006 52.3849C216.715 52.0976 216.243 52.0976 215.952 52.3849L213.154 55.1452C212.685 55.6082 212.049 55.8683 211.385 55.8683H210.189Z" fill="black"/>
<path d="M207.617 46.464L207.07 45.9243C206.935 45.7905 206.935 45.5733 207.07 45.4394L207.617 44.9001C207.753 44.766 207.973 44.766 208.109 44.9001L208.656 45.4394C208.792 45.5733 208.792 45.7905 208.656 45.9243L208.109 46.464C207.973 46.5979 207.753 46.5979 207.617 46.464Z" fill="#32BCAD"/>
<path d="M188.431 57.4523C187.831 57.4523 187.267 57.2217 186.842 56.803L184.547 54.5387C184.386 54.3793 184.105 54.3798 183.944 54.5387L181.641 56.8113C181.217 57.2299 180.652 57.4605 180.052 57.4605H179.6L182.506 60.3283C183.414 61.2239 184.885 61.2239 185.793 60.3283L188.708 57.4523H188.431Z" fill="#32BCAD"/>
<path d="M180.052 49.443C180.652 49.443 181.217 49.6737 181.641 50.0924L183.944 52.3653C184.11 52.529 184.381 52.5297 184.547 52.3651L186.842 50.1006C187.266 49.682 187.831 49.4513 188.431 49.4513H188.708L185.793 46.5754C184.885 45.6797 183.414 45.6797 182.506 46.5754L179.6 49.443H180.052Z" fill="#32BCAD"/>
<path d="M191.119 51.8302L189.358 50.0922C189.319 50.1075 189.277 50.1171 189.232 50.1171H188.432C188.018 50.1171 187.612 50.2828 187.32 50.5716L185.025 52.8359C184.81 53.0478 184.528 53.1539 184.246 53.1539C183.964 53.1539 183.682 53.0478 183.467 52.8361L181.164 50.5634C180.871 50.2745 180.466 50.1089 180.052 50.1089H179.067C179.025 50.1089 178.986 50.0991 178.949 50.0853L177.181 51.8302C176.273 52.7257 176.273 54.1778 177.181 55.0736L178.949 56.8184C178.986 56.8046 179.025 56.7948 179.067 56.7948H180.052C180.466 56.7948 180.871 56.6291 181.164 56.3403L183.467 54.0677C183.883 53.6573 184.609 53.6571 185.025 54.0679L187.32 56.332C187.612 56.6209 188.018 56.7865 188.432 56.7865H189.232C189.277 56.7865 189.319 56.7961 189.358 56.8114L191.119 55.0736C192.027 54.1778 192.027 52.7257 191.119 51.8302Z" fill="#32BCAD"/>
<path d="M197.954 59.1361C197.824 59.1361 197.672 59.1669 197.523 59.2009V59.7672C197.626 59.8045 197.745 59.8224 197.858 59.8224C198.146 59.8224 198.283 59.7267 198.283 59.4767C198.283 59.2414 198.171 59.1361 197.954 59.1361ZM197.426 60.1875V59.0678H197.505L197.513 59.1166C197.646 59.0857 197.83 59.0452 197.962 59.0452C198.069 59.0452 198.171 59.0612 198.256 59.1295C198.355 59.2091 198.386 59.3371 198.386 59.4767C198.386 59.6228 198.337 59.7608 198.202 59.8369C198.108 59.8889 197.982 59.9099 197.868 59.9099C197.751 59.9099 197.64 59.892 197.523 59.858V60.1875H197.426Z" fill="white"/>
<path d="M199.108 59.1329C198.82 59.1329 198.691 59.2222 198.691 59.4721C198.691 59.7138 198.818 59.8226 199.108 59.8226C199.394 59.8226 199.522 59.7349 199.522 59.485C199.522 59.2433 199.395 59.1329 199.108 59.1329ZM199.477 59.8226C199.382 59.8906 199.254 59.9102 199.108 59.9102C198.958 59.9102 198.83 59.889 198.736 59.8226C198.631 59.7496 198.588 59.6294 198.588 59.4786C198.588 59.3293 198.631 59.2077 198.736 59.1329C198.83 59.0664 198.958 59.0454 199.108 59.0454C199.256 59.0454 199.382 59.0664 199.477 59.1329C199.584 59.2077 199.626 59.3293 199.626 59.4769C199.626 59.6278 199.583 59.7496 199.477 59.8226Z" fill="white"/>
<path d="M200.842 59.8867L200.521 59.2069H200.514L200.199 59.8867H200.112L199.769 59.0673H199.876L200.161 59.7551H200.167L200.477 59.0673H200.565L200.883 59.7551H200.889L201.167 59.0673H201.271L200.929 59.8867H200.842Z" fill="white"/>
<path d="M201.891 59.1312C201.624 59.1312 201.534 59.248 201.517 59.4169H202.264C202.256 59.2304 202.159 59.1312 201.891 59.1312ZM201.887 59.9102C201.728 59.9102 201.624 59.8874 201.542 59.8191C201.445 59.7364 201.412 59.6165 201.412 59.4786C201.412 59.3471 201.456 59.2076 201.567 59.128C201.659 59.0648 201.772 59.0453 201.891 59.0453C201.998 59.0453 202.121 59.0566 202.223 59.1248C202.343 59.2042 202.366 59.3439 202.366 59.5028H201.514C201.517 59.6716 201.573 59.821 201.895 59.821C202.048 59.821 202.192 59.7965 202.325 59.7738V59.8598C202.187 59.8842 202.034 59.9102 201.887 59.9102Z" fill="white"/>
<path d="M202.644 59.8867V59.0673H202.723L202.732 59.116C202.908 59.0722 202.99 59.0446 203.144 59.0446H203.156V59.1355H203.133C203.003 59.1355 202.924 59.1532 202.742 59.2003V59.8867H202.644Z" fill="white"/>
<path d="M203.719 59.1312C203.452 59.1312 203.362 59.248 203.345 59.4169H204.092C204.084 59.2304 203.987 59.1312 203.719 59.1312ZM203.715 59.9102C203.556 59.9102 203.452 59.8874 203.37 59.8191C203.273 59.7364 203.24 59.6165 203.24 59.4786C203.24 59.3471 203.285 59.2076 203.395 59.128C203.487 59.0648 203.6 59.0453 203.719 59.0453C203.826 59.0453 203.949 59.0566 204.051 59.1248C204.171 59.2042 204.194 59.3439 204.194 59.5028H203.342C203.345 59.6716 203.401 59.821 203.724 59.821C203.877 59.821 204.02 59.7965 204.153 59.7738V59.8598C204.015 59.8842 203.862 59.9102 203.715 59.9102Z" fill="white"/>
<path d="M205.256 59.1882C205.152 59.1508 205.034 59.1329 204.92 59.1329C204.633 59.1329 204.496 59.2287 204.496 59.4786C204.496 59.7154 204.608 59.8192 204.825 59.8192C204.955 59.8192 205.106 59.7884 205.256 59.7559V59.1882ZM205.274 59.8875L205.266 59.8387C205.133 59.8695 204.948 59.9102 204.817 59.9102C204.71 59.9102 204.608 59.8956 204.522 59.8257C204.424 59.7461 204.393 59.6181 204.393 59.4786C204.393 59.3326 204.442 59.1945 204.577 59.1199C204.671 59.0664 204.797 59.0453 204.912 59.0453C205.027 59.0453 205.139 59.0649 205.256 59.0972V58.7224H205.353V59.8875H205.274Z" fill="white"/>
<path d="M206.778 59.1363C206.648 59.1363 206.497 59.1671 206.347 59.2011V59.7657C206.452 59.8047 206.569 59.8226 206.683 59.8226C206.97 59.8226 207.107 59.7269 207.107 59.4769C207.107 59.2417 206.995 59.1363 206.778 59.1363ZM207.026 59.8372C206.932 59.8891 206.806 59.9102 206.692 59.9102C206.569 59.9102 206.446 59.8891 206.321 59.8485L206.316 59.8875H206.25V58.7225H206.347V59.1134C206.48 59.0844 206.659 59.0454 206.786 59.0454C206.893 59.0454 206.995 59.0614 207.08 59.1297C207.179 59.2093 207.21 59.3374 207.21 59.4769C207.21 59.623 207.161 59.761 207.026 59.8372Z" fill="white"/>
<path d="M207.338 60.2028V60.1137C207.386 60.1185 207.43 60.1218 207.461 60.1218C207.581 60.1218 207.654 60.0876 207.721 59.9529L207.752 59.8881L207.318 59.0686H207.43L207.802 59.776H207.808L208.162 59.0686H208.272L207.805 59.9887C207.72 60.1558 207.627 60.2109 207.458 60.2109C207.42 60.2109 207.379 60.2077 207.338 60.2028Z" fill="white"/>
<path d="M209.609 59.4194H209.287V59.7067H209.611C209.833 59.7067 209.916 59.6822 209.916 59.5622C209.916 59.4339 209.801 59.4194 209.609 59.4194ZM209.55 58.9536H209.287V59.2457H209.551C209.77 59.2457 209.857 59.2198 209.857 59.0981C209.857 58.9683 209.747 58.9536 209.55 58.9536ZM210.05 59.8089C209.931 59.8835 209.788 59.8867 209.527 59.8867H209.035V58.7752H209.515C209.741 58.7752 209.879 58.7784 209.994 58.8466C210.076 58.8953 210.109 58.97 210.109 59.0673C210.109 59.1841 210.06 59.2619 209.931 59.3139V59.3202C210.076 59.3529 210.17 59.426 210.17 59.5833C210.17 59.6903 210.13 59.7602 210.05 59.8089Z" fill="white"/>
<path d="M211.154 59.5435C211.057 59.5353 210.958 59.5305 210.855 59.5305C210.685 59.5305 210.626 59.5646 210.626 59.6408C210.626 59.7122 210.675 59.7512 210.805 59.7512C210.914 59.7512 211.044 59.7269 211.154 59.7024V59.5435ZM211.203 59.8875L211.197 59.8387C211.055 59.8729 210.891 59.9102 210.746 59.9102C210.657 59.9102 210.562 59.8988 210.494 59.85C210.432 59.8063 210.402 59.7348 210.402 59.6521C210.402 59.5596 210.443 59.4737 210.542 59.4299C210.629 59.3893 210.746 59.3861 210.853 59.3861C210.94 59.3861 211.057 59.3909 211.154 59.3974V59.3827C211.154 59.2546 211.068 59.2125 210.835 59.2125C210.744 59.2125 210.634 59.2172 210.529 59.227V59.0614C210.646 59.0519 210.777 59.0453 210.886 59.0453C211.031 59.0453 211.18 59.0567 211.272 59.1215C211.368 59.1882 211.386 59.2807 211.386 59.4023V59.8875H211.203Z" fill="white"/>
<path d="M212.47 59.8867V59.4339C212.47 59.2847 212.392 59.2312 212.254 59.2312C212.152 59.2312 212.024 59.2571 211.915 59.2831V59.8867H211.684V59.0673H211.873L211.881 59.1191C212.027 59.082 212.19 59.0446 212.325 59.0446C212.427 59.0446 212.53 59.0591 212.609 59.1289C212.675 59.1874 212.7 59.2683 212.7 59.3853V59.8867H212.47Z" fill="white"/>
<path d="M213.355 59.9102C213.248 59.9102 213.131 59.8956 213.046 59.8242C212.944 59.743 212.914 59.6149 212.914 59.4768C212.914 59.3471 212.957 59.2059 213.083 59.1265C213.187 59.0598 213.315 59.0453 213.449 59.0453C213.544 59.0453 213.638 59.0519 213.741 59.0614V59.2368C213.657 59.2287 213.557 59.2222 213.476 59.2222C213.256 59.2222 213.152 59.2904 213.152 59.4786C213.152 59.6555 213.23 59.7317 213.411 59.7317C213.516 59.7317 213.639 59.7122 213.759 59.6895V59.8583C213.629 59.8843 213.488 59.9102 213.355 59.9102Z" fill="white"/>
<path d="M214.445 59.2171C214.224 59.2171 214.127 59.2855 214.127 59.4721C214.127 59.6587 214.222 59.7383 214.445 59.7383C214.663 59.7383 214.759 59.6716 214.759 59.4849C214.759 59.2984 214.665 59.2171 214.445 59.2171ZM214.842 59.8242C214.74 59.8922 214.607 59.9102 214.445 59.9102C214.278 59.9102 214.145 59.8906 214.045 59.8242C213.93 59.7495 213.889 59.6262 213.889 59.4786C213.889 59.3308 213.93 59.2059 214.045 59.1312C214.145 59.0648 214.278 59.0453 214.445 59.0453C214.609 59.0453 214.74 59.0648 214.842 59.1312C214.958 59.2059 214.997 59.3308 214.997 59.4768C214.997 59.6246 214.956 59.7495 214.842 59.8242Z" fill="white"/>
<path d="M216.336 59.9102C216.197 59.9102 216.045 59.8875 215.932 59.7949C215.797 59.6845 215.756 59.5142 215.756 59.3308C215.756 59.167 215.808 58.9723 215.984 58.8587C216.121 58.7712 216.29 58.7533 216.461 58.7533C216.586 58.7533 216.714 58.7614 216.854 58.7727V58.9723C216.734 58.9625 216.586 58.9544 216.471 58.9544C216.15 58.9544 216.014 59.0745 216.014 59.3308C216.014 59.5922 216.141 59.709 216.377 59.709C216.532 59.709 216.705 59.6781 216.879 59.6424V59.8404C216.705 59.8745 216.522 59.9102 216.336 59.9102Z" fill="white"/>
<path d="M217.561 59.1913C217.368 59.1913 217.294 59.2596 217.279 59.3845H217.839C217.832 59.2514 217.753 59.1913 217.561 59.1913ZM217.526 59.9102C217.39 59.9102 217.266 59.894 217.174 59.8192C217.076 59.7383 217.041 59.6165 217.041 59.4768C217.041 59.3519 217.082 59.2125 217.197 59.1312C217.299 59.0598 217.429 59.0453 217.561 59.0453C217.679 59.0453 217.819 59.0582 217.921 59.128C218.054 59.2206 218.066 59.3634 218.067 59.5321H217.278C217.283 59.6571 217.35 59.7383 217.584 59.7383C217.728 59.7383 217.89 59.7172 218.026 59.696V59.8566C217.866 59.8827 217.692 59.9102 217.526 59.9102Z" fill="white"/>
<path d="M219.098 59.8867V59.4339C219.098 59.2847 219.021 59.2312 218.883 59.2312C218.781 59.2312 218.653 59.2571 218.544 59.2831V59.8867H218.312V59.0673H218.502L218.51 59.1191C218.656 59.082 218.819 59.0446 218.954 59.0446C219.056 59.0446 219.159 59.0591 219.238 59.1289C219.304 59.1874 219.329 59.2683 219.329 59.3853V59.8867H219.098Z" fill="white"/>
<path d="M219.989 59.9102C219.877 59.9102 219.775 59.8793 219.719 59.7933C219.678 59.7348 219.658 59.6555 219.658 59.5451V59.2383H219.49V59.0681H219.658L219.683 58.8197H219.888V59.0681H220.215V59.2383H219.888V59.5013C219.888 59.5646 219.893 59.6181 219.911 59.6571C219.936 59.7122 219.99 59.7333 220.062 59.7333C220.117 59.7333 220.183 59.7251 220.228 59.7172V59.8809C220.153 59.8956 220.066 59.9102 219.989 59.9102Z" fill="white"/>
<path d="M220.441 59.8867V59.0673H220.63L220.639 59.1191C220.792 59.077 220.905 59.0446 221.05 59.0446C221.056 59.0446 221.066 59.0446 221.079 59.0461V59.2409C221.053 59.2393 221.022 59.2393 220.999 59.2393C220.885 59.2393 220.8 59.2522 220.673 59.2815V59.8867H220.441Z" fill="white"/>
<path d="M221.923 59.5435C221.826 59.5353 221.728 59.5305 221.624 59.5305C221.455 59.5305 221.395 59.5646 221.395 59.6408C221.395 59.7122 221.445 59.7512 221.575 59.7512C221.683 59.7512 221.813 59.7269 221.923 59.7024V59.5435ZM221.973 59.8875L221.966 59.8387C221.825 59.8729 221.66 59.9102 221.516 59.9102C221.427 59.9102 221.331 59.8988 221.264 59.85C221.201 59.8063 221.172 59.7348 221.172 59.6521C221.172 59.5596 221.213 59.4737 221.312 59.4299C221.399 59.3893 221.516 59.3861 221.622 59.3861C221.71 59.3861 221.826 59.3909 221.923 59.3974V59.3827C221.923 59.2546 221.838 59.2125 221.604 59.2125C221.514 59.2125 221.404 59.2172 221.298 59.227V59.0614C221.415 59.0519 221.547 59.0453 221.655 59.0453C221.8 59.0453 221.95 59.0567 222.042 59.1215C222.137 59.1882 222.155 59.2807 222.155 59.4023V59.8875H221.973Z" fill="white"/>
<path d="M222.453 58.7217H222.685V59.8867H222.453V58.7217Z" fill="white"/>
<defs>
<clipPath id="clip0_285_1813">
<rect x="58.5" width="50" height="30" rx="2" fill="white"/>
</clipPath>
<clipPath id="clip1_285_1813">
<rect width="50" height="30" fill="white" transform="translate(174.5)"/>
</clipPath>
<clipPath id="clip2_285_1813">
<rect width="50" height="30" fill="white" transform="translate(0.5 38)"/>
</clipPath>
<clipPath id="clip3_285_1813">
<rect width="50" height="30" fill="white" transform="translate(58.5 38)"/>
</clipPath>
<clipPath id="clip4_285_1813">
<rect width="50" height="30" fill="white" transform="translate(116.5 38)"/>
</clipPath>
</defs>
</svg>
